<svg width="21" height="21" viewBox="0 0 21 21" fill="none" xmlns="http://www.w3.org/2000/svg">
<path d="M18.755 9.33668C18.8575 9.88584 18.9133 10.46 18.9133 11.0592C18.9133 15.7458 15.7766 19.0783 11.0391 19.0783C9.96175 19.0787 8.89487 18.8667 7.89945 18.4546C6.90403 18.0424 5.99957 17.4382 5.23775 16.6764C4.47594 15.9146 3.8717 15.0101 3.45956 14.0147C3.04742 13.0193 2.83546 11.9524 2.83579 10.875C2.83546 9.79764 3.04742 8.73076 3.45956 7.73534C3.8717 6.73992 4.47594 5.83546 5.23775 5.07365C5.99957 4.31183 6.90403 3.70759 7.89945 3.29545C8.89487 2.88331 9.96175 2.67135 11.0391 2.67168C13.2541 2.67168 15.105 3.48668 16.525 4.81001L14.2125 7.12251V7.11668C13.3516 6.29668 12.2591 5.87584 11.0391 5.87584C8.33245 5.87584 6.13245 8.16251 6.13245 10.87C6.13245 13.5767 8.33245 15.8683 11.0391 15.8683C13.495 15.8683 15.1666 14.4642 15.51 12.5358H11.0391V9.33668H18.7558H18.755Z" fill="#FF725E"/>
</svg>
