<svg width="35" height="35" viewBox="0 0 35 35" fill="none" xmlns="http://www.w3.org/2000/svg">
<rect width="35" height="35" rx="17.5" fill="white"/>
<rect x="1" y="1" width="33" height="33" rx="16.5" stroke="#FF725E" stroke-opacity="0.4" stroke-width="2"/>
<path d="M25.755 16.3367C25.8575 16.8859 25.9133 17.46 25.9133 18.0592C25.9133 22.7459 22.7766 26.0784 18.0391 26.0784C16.9617 26.0787 15.8949 25.8667 14.8995 25.4546C13.904 25.0424 12.9996 24.4382 12.2378 23.6764C11.4759 22.9146 10.8717 22.0101 10.4596 21.0147C10.0474 20.0193 9.83546 18.9524 9.83579 17.875C9.83546 16.7977 10.0474 15.7308 10.4596 14.7354C10.8717 13.7399 11.4759 12.8355 12.2378 12.0737C12.9996 11.3118 13.904 10.7076 14.8995 10.2955C15.8949 9.88333 16.9617 9.67136 18.0391 9.67169C20.2541 9.67169 22.105 10.4867 23.525 11.81L21.2125 14.1225V14.1167C20.3516 13.2967 19.2591 12.8759 18.0391 12.8759C15.3325 12.8759 13.1325 15.1625 13.1325 17.87C13.1325 20.5767 15.3325 22.8684 18.0391 22.8684C20.495 22.8684 22.1666 21.4642 22.51 19.5359H18.0391V16.3367H25.7558H25.755Z" fill="#FF725E"/>
</svg>
