<svg width="624" height="624" viewBox="0 0 624 624" fill="none" xmlns="http://www.w3.org/2000/svg">
<path d="M582.679 394.618H378.144V276.257H582.679V394.618ZM379.392 393.37H581.431V277.505H379.392V393.37Z" fill="#E0E0E0"/>
<path d="M540.484 339.369H405.538V343.325H540.484V339.369Z" fill="#F0F0F0"/>
<path d="M549.781 354.12H405.538V358.438H549.781V354.12Z" fill="#F0F0F0"/>
<path d="M549.781 369.046H405.538V373.364H549.781V369.046Z" fill="#F0F0F0"/>
<path d="M452.699 317.94H405.538V328.212H452.699V317.94Z" fill="#F0F0F0"/>
<path d="M582.055 276.881H378.805V295.726H582.055V276.881Z" fill="#E0E0E0"/>
<path d="M566.417 292.906C566.155 292.656 568.776 289.499 572.258 285.854C575.74 282.21 578.797 279.452 579.047 279.689C579.297 279.926 576.688 283.096 573.206 286.753C569.724 290.41 566.667 293.155 566.417 292.906Z" fill="white"/>
<path d="M579.072 292.906C578.822 293.155 575.777 290.41 572.283 286.753C568.789 283.096 566.18 279.939 566.442 279.689C566.704 279.44 569.737 282.185 573.231 285.854C576.726 289.523 579.309 292.656 579.072 292.906Z" fill="white"/>
<path d="M330.995 42.4944H127.745V159.619H330.995V42.4944Z" fill="#E6E6E6"/>
<path d="M289.436 104.994H154.49V108.95H289.436V104.994Z" fill="#F0F0F0"/>
<path d="M298.734 119.746H154.49V124.064H298.734V119.746Z" fill="#F0F0F0"/>
<path d="M298.734 134.672H154.49V138.99H298.734V134.672Z" fill="#F0F0F0"/>
<path d="M201.652 83.5661H154.49V93.8371H201.652V83.5661Z" fill="#F0F0F0"/>
<path d="M330.995 42.4944H127.745V61.3392H330.995V42.4944Z" fill="#E0E0E0"/>
<path d="M314.671 58.4313C314.409 58.1942 317.029 55.0243 320.511 51.3801C323.993 47.736 327.051 44.9779 327.3 45.2275C327.55 45.4771 324.942 48.6345 321.46 52.2787C317.978 55.9229 314.92 58.656 314.671 58.4313Z" fill="white"/>
<path d="M327.3 58.4313C327.051 58.6809 324.006 55.9353 320.511 52.2787C317.017 48.6221 314.409 45.4771 314.671 45.2275C314.933 44.9779 317.965 47.7235 321.46 51.3801C324.954 55.0368 327.563 58.1942 327.3 58.4313Z" fill="white"/>
<path d="M254.018 260.071H49.5206V141.698H254.018V260.071ZM50.7686 258.823H252.77V142.946H50.7686V258.823Z" fill="#E0E0E0"/>
<path d="M211.836 204.822H76.8893V208.778H211.836V204.822Z" fill="#F0F0F0"/>
<path d="M221.133 219.573H76.8893V223.891H221.133V219.573Z" fill="#F0F0F0"/>
<path d="M221.133 234.499H76.8893V238.817H221.133V234.499Z" fill="#F0F0F0"/>
<path d="M124.051 183.394H76.8893V193.665H124.051V183.394Z" fill="#F0F0F0"/>
<path d="M253.394 142.322H50.1447V161.167H253.394V142.322Z" fill="#E0E0E0"/>
<path d="M490.027 287.19H250.037V502.045H490.027V287.19Z" fill="#E6E6E6"/>
<path d="M262.105 219.511H74.1062V414.835H262.105V219.511Z" fill="#F0F0F0"/>
<path d="M262.105 219.511H74.1062V240.789H262.105V219.511Z" fill="#E0E0E0"/>
<path d="M89.6313 229.932C89.5971 230.703 89.3371 231.448 88.8835 232.073C88.4298 232.698 87.8027 233.176 87.0797 233.448C86.3568 233.72 85.5699 233.774 84.8168 233.602C84.0636 233.431 83.3774 233.042 82.8432 232.484C82.309 231.926 81.9504 231.224 81.8118 230.464C81.6733 229.704 81.7609 228.92 82.0639 228.21C82.3668 227.499 82.8717 226.894 83.5159 226.468C84.1601 226.041 84.9153 225.814 85.6877 225.813C86.7558 225.839 87.7701 226.287 88.509 227.059C89.248 227.83 89.6514 228.863 89.6313 229.932Z" fill="white"/>
<path d="M105.643 229.932C105.611 230.707 105.352 231.456 104.898 232.085C104.444 232.714 103.815 233.196 103.089 233.47C102.363 233.744 101.573 233.799 100.816 233.628C100.059 233.456 99.3696 233.066 98.833 232.505C98.2963 231.945 97.9363 231.239 97.7978 230.476C97.6592 229.712 97.7482 228.925 98.0538 228.212C98.3593 227.498 98.8678 226.891 99.516 226.464C100.164 226.038 100.924 225.811 101.7 225.813C102.768 225.839 103.782 226.287 104.521 227.059C105.26 227.83 105.663 228.863 105.643 229.932Z" fill="white"/>
<path d="M121.655 229.932C121.623 230.707 121.364 231.456 120.91 232.085C120.456 232.714 119.827 233.196 119.101 233.47C118.375 233.744 117.585 233.799 116.828 233.628C116.071 233.456 115.381 233.066 114.845 232.505C114.308 231.945 113.948 231.239 113.81 230.476C113.671 229.712 113.76 228.925 114.066 228.212C114.371 227.498 114.88 226.891 115.528 226.464C116.176 226.038 116.935 225.811 117.711 225.813C118.779 225.839 119.794 226.287 120.533 227.059C121.272 227.83 121.675 228.863 121.655 229.932Z" fill="white"/>
<path d="M555.834 85.2134H315.844V324.405H555.834V85.2134Z" fill="#F0F0F0"/>
<path d="M555.834 85.2134H315.844V113.231H555.834V85.2134Z" fill="#E0E0E0"/>
<path d="M336.286 98.9414C336.242 99.96 335.9 100.943 335.302 101.769C334.704 102.595 333.877 103.227 332.923 103.586C331.969 103.946 330.93 104.018 329.936 103.792C328.942 103.567 328.035 103.054 327.33 102.318C326.624 101.582 326.151 100.655 325.967 99.6523C325.784 98.6494 325.899 97.6147 326.299 96.6768C326.699 95.7389 327.365 94.939 328.215 94.3765C329.066 93.814 330.062 93.5136 331.082 93.5126C332.491 93.5454 333.83 94.135 334.805 95.1524C335.78 96.1699 336.313 97.5323 336.286 98.9414Z" fill="white"/>
<path d="M355.842 95.2723C356.534 96.0237 356.99 96.962 357.152 97.9704C357.314 98.9788 357.176 100.013 356.755 100.943C356.334 101.874 355.648 102.66 354.784 103.203C353.919 103.747 352.914 104.024 351.893 104C350.871 103.976 349.88 103.653 349.042 103.069C348.203 102.486 347.555 101.669 347.178 100.72C346.8 99.7705 346.711 98.7313 346.92 97.7316C347.129 96.7319 347.628 95.8159 348.354 95.0976C349.371 94.1297 350.731 93.6046 352.134 93.6373C353.538 93.6701 354.871 94.258 355.842 95.2723Z" fill="white"/>
<path d="M378.443 98.9414C378.399 99.96 378.057 100.943 377.459 101.769C376.861 102.595 376.034 103.227 375.08 103.586C374.126 103.946 373.088 104.018 372.093 103.792C371.099 103.567 370.193 103.054 369.487 102.318C368.782 101.582 368.308 100.655 368.125 99.6523C367.942 98.6494 368.057 97.6147 368.457 96.6768C368.856 95.7389 369.523 94.939 370.373 94.3765C371.223 93.814 372.22 93.5136 373.239 93.5126C374.648 93.5454 375.987 94.135 376.962 95.1524C377.938 96.1699 378.47 97.5323 378.443 98.9414Z" fill="white"/>
<path d="M503.992 565.506C503.992 565.681 417.331 565.831 310.465 565.831C203.599 565.831 116.9 565.681 116.9 565.506C116.9 565.332 203.549 565.182 310.465 565.182C417.381 565.182 503.992 565.344 503.992 565.506Z" fill="#263238"/>
<path d="M419.553 412.726C400.271 399.26 395.903 374.263 396.664 351.786C396.789 348.042 396.377 344.074 398.162 340.791C399.947 337.509 404.115 335.25 407.472 336.823C410.255 338.133 411.466 341.378 413.026 344.061C415.107 347.635 418.157 350.547 421.824 352.46C424.208 353.708 427.165 354.457 429.524 353.159C432.769 351.374 433.143 346.919 433.118 343.175C433.118 336.211 433.077 329.256 432.994 322.308C432.769 318.578 433.149 314.836 434.117 311.226C435.277 307.682 437.861 304.4 441.393 303.401C444.924 302.403 449.33 304.462 450.129 308.106C450.266 309.65 450.304 311.2 450.241 312.749C450.341 314.309 451.065 316.019 452.525 316.493C453.985 316.967 455.507 315.881 456.631 314.783C460.475 311.039 463.095 306.159 465.529 301.342C467.962 296.525 470.346 291.57 473.841 287.464C477.335 283.358 482.165 280.101 487.569 279.789C492.972 279.477 498.601 282.797 499.949 288.038C501.297 293.28 498.239 298.634 494.957 302.89C490.004 309.207 484.165 314.776 477.622 319.426C476.345 320.123 475.325 321.212 474.714 322.533C473.903 325.029 476.262 327.525 478.72 328.311C481.503 329.235 484.523 328.948 487.456 329.297C490.389 329.647 493.509 330.92 494.62 333.665C496.142 337.484 492.947 341.478 489.815 344.099C483.525 349.34 476.383 353.464 468.699 356.292C465.953 357.29 463.07 358.176 460.849 360.098C458.627 362.02 457.305 365.377 458.64 368.01C459.975 370.644 463.407 371.48 466.29 370.943C469.173 370.406 471.731 368.859 474.477 367.823C479.606 365.889 486.221 366.238 489.453 370.668C490.454 372.195 491.088 373.932 491.305 375.745C491.521 377.557 491.315 379.395 490.701 381.114C489.452 384.535 487.53 387.671 485.048 390.337C476.874 400.103 466.253 407.523 454.272 411.84C442.379 415.958 431.359 417.082 419.54 412.751" fill="#1976D2"/>
<path d="M494.458 282.872C494.458 282.872 494.345 282.997 494.096 283.221L492.985 284.207C492.011 285.081 490.576 286.354 488.767 288.038C483.636 292.802 478.872 297.946 474.515 303.426C471.731 306.883 468.849 310.802 465.779 315.058C462.708 319.313 459.539 323.906 456.394 328.786C453.041 333.931 449.97 339.256 447.196 344.735C445.748 347.593 444.475 350.576 443.165 353.621L439.296 362.918C434.196 374.63 429.755 386.617 425.992 398.823C422.962 408.811 420.872 419.06 419.752 429.437C419.026 436.44 418.91 443.492 419.403 450.516C419.603 453.012 419.79 454.921 419.964 456.219C420.039 456.843 420.089 457.342 420.139 457.704V458.216C420.085 458.053 420.048 457.886 420.027 457.717C419.964 457.355 419.89 456.868 419.79 456.244C419.565 454.996 419.328 453.024 419.103 450.528C418.501 443.492 418.543 436.415 419.228 429.387C420.279 418.966 422.322 408.669 425.331 398.636C429.062 386.395 433.491 374.378 438.597 362.644L442.566 353.384C443.876 350.351 445.162 347.343 446.622 344.473C449.415 338.977 452.511 333.64 455.894 328.486C459.089 323.494 462.309 318.976 465.342 314.758C468.374 310.54 471.307 306.596 474.078 303.152C478.479 297.686 483.308 292.578 488.517 287.876C490.364 286.216 491.837 284.968 492.835 284.132L493.996 283.196C494.138 283.072 494.293 282.964 494.458 282.872Z" fill="#263238"/>
<path d="M446.784 344.448C446.608 343.934 446.487 343.403 446.422 342.863C446.222 341.827 445.998 340.367 445.736 338.47C445.199 334.726 444.65 329.597 444.063 323.918C443.477 318.24 442.815 313.098 442.266 309.392C441.979 307.545 441.73 306.06 441.555 305.024C441.419 304.494 441.347 303.949 441.343 303.401C441.558 303.901 441.713 304.425 441.804 304.961C442.079 305.985 442.391 307.457 442.74 309.317C443.452 313.061 444.151 318.153 444.737 323.844C445.324 329.534 445.823 334.526 446.21 338.408C446.397 340.155 446.559 341.64 446.684 342.826C446.781 343.361 446.815 343.905 446.784 344.448Z" fill="#263238"/>
<path d="M494.807 335.487C494.2 335.62 493.581 335.695 492.96 335.712C491.712 335.824 489.94 335.974 487.743 336.224C483.35 336.698 477.31 337.572 470.683 338.82C464.056 340.068 458.103 341.478 453.823 342.564C451.689 343.113 449.966 343.612 448.831 343.949C448.224 344.164 447.597 344.315 446.959 344.398C447.535 344.108 448.137 343.87 448.756 343.687C449.929 343.275 451.626 342.701 453.748 342.089C458.004 340.841 463.956 339.356 470.608 338.083C476.243 337.006 481.929 336.214 487.643 335.712C489.852 335.525 491.637 335.45 492.885 335.425C493.526 335.381 494.17 335.402 494.807 335.487Z" fill="#263238"/>
<path d="M425.942 397.763C425.809 397.582 425.7 397.385 425.618 397.176L424.794 395.441C424.083 393.931 423.122 391.697 421.974 388.964C419.652 383.473 416.695 375.785 413.55 367.249C410.405 358.713 407.509 351.025 405.313 345.471C404.24 342.776 403.354 340.567 402.692 338.919L401.993 337.135C401.896 336.929 401.829 336.71 401.794 336.486C401.927 336.666 402.036 336.864 402.118 337.072L402.942 338.807C403.641 340.317 404.614 342.551 405.762 345.284C408.084 350.775 411.041 358.463 414.186 366.999C417.331 375.536 420.227 383.223 422.423 388.777C423.496 391.473 424.382 393.682 425.031 395.329C425.318 396.04 425.556 396.577 425.743 397.114C425.84 397.319 425.907 397.538 425.942 397.763Z" fill="#263238"/>
<path d="M489.69 377.208C489.49 377.323 489.276 377.411 489.054 377.47L487.207 378.094L480.38 380.303C474.614 382.175 466.652 384.846 457.916 387.791C449.18 390.736 441.18 393.357 435.377 395.104C432.482 395.99 430.123 396.664 428.488 397.114L426.604 397.6C426.385 397.67 426.159 397.716 425.93 397.738C426.13 397.623 426.344 397.535 426.566 397.476L428.413 396.852L435.24 394.643C441.006 392.771 448.968 390.1 457.704 387.155C466.44 384.209 474.427 381.588 480.23 379.841C483.138 378.955 485.484 378.281 487.132 377.832L489.016 377.345C489.235 377.276 489.461 377.23 489.69 377.208Z" fill="#263238"/>
<path d="M463.682 74.4806L457.255 76.777L454.497 68.3779C449.43 52.8902 433.281 44.6659 418.442 49.895C403.603 55.1242 395.703 72.1094 400.77 87.5971L403.528 95.9962L397.076 98.305C394.616 99.2592 392.618 101.125 391.498 103.514C390.377 105.904 390.221 108.633 391.061 111.134L408.945 165.784C409.316 167.023 409.932 168.174 410.757 169.169C411.582 170.165 412.599 170.984 413.746 171.579C414.894 172.174 416.15 172.532 417.439 172.632C418.728 172.732 420.024 172.572 421.25 172.162L487.856 148.337C490.348 147.385 492.375 145.502 493.508 143.086C494.642 140.67 494.794 137.909 493.933 135.383L476.037 80.7331C475.656 79.4982 475.03 78.3526 474.197 77.3647C473.364 76.3769 472.34 75.5671 471.187 74.9835C470.034 74.4 468.775 74.0547 467.486 73.9683C466.196 73.8819 464.903 74.0561 463.682 74.4806ZM412.913 83.2166C411.547 79.1896 411.792 74.7901 413.598 70.9399C415.403 67.0896 418.628 64.0874 422.598 62.5622C424.558 61.8916 426.633 61.6227 428.699 61.7715C430.766 61.9203 432.781 62.4838 434.625 63.4284C436.468 64.373 438.103 65.6794 439.431 67.2695C440.759 68.8596 441.753 70.7009 442.354 72.6835L445.099 81.0826L415.659 91.6157L412.913 83.2166ZM450.353 131.714L454.921 145.667C455.005 145.946 454.978 146.248 454.845 146.508C454.713 146.768 454.485 146.967 454.21 147.064L447.807 149.348C447.553 149.419 447.28 149.388 447.048 149.262C446.815 149.137 446.64 148.926 446.559 148.674L441.954 134.784C439.415 134.646 436.979 133.735 434.971 132.174C432.964 130.612 431.481 128.475 430.722 126.048C429.637 122.839 429.835 119.335 431.275 116.269C432.715 113.203 435.285 110.813 438.447 109.599C440.009 109.066 441.662 108.852 443.307 108.971C444.953 109.09 446.558 109.539 448.027 110.291C449.495 111.044 450.797 112.084 451.855 113.35C452.913 114.616 453.705 116.083 454.185 117.661C454.988 120.127 455.054 122.773 454.376 125.276C453.697 127.778 452.304 130.029 450.366 131.751L450.353 131.714Z" fill="#1976D2"/>
<path d="M456.968 76.6272C456.968 76.8019 445.049 81.2822 430.223 86.6112C415.397 91.9401 403.304 96.2208 403.241 96.096C403.179 95.9712 415.16 91.4534 429.998 86.112C444.837 80.7705 456.905 76.4649 456.968 76.6272Z" fill="#263238"/>
<path d="M471.12 78.9235C471.175 79.0318 471.221 79.1445 471.257 79.2605C471.357 79.5101 471.469 79.8346 471.619 80.2339C471.944 81.145 472.393 82.4054 472.955 83.9779L477.747 97.9306C479.744 103.846 482.127 110.86 484.773 118.647C486.021 122.554 487.494 126.622 488.867 130.903C489.601 133.109 489.919 135.432 489.803 137.754C489.697 138.962 489.353 140.137 488.792 141.211C488.192 142.282 487.391 143.227 486.433 143.994C484.505 145.402 482.365 146.493 480.093 147.227L473.666 149.535L461.498 153.891L440.893 161.229L426.978 166.121L423.234 167.369L422.236 167.694C422.129 167.741 422.015 167.771 421.899 167.781C421.899 167.781 421.999 167.781 422.211 167.631L423.184 167.244L426.928 165.834L440.769 160.742L461.336 153.254L473.479 148.861L479.906 146.54C482.113 145.836 484.191 144.778 486.059 143.408C486.95 142.696 487.696 141.819 488.255 140.824C488.784 139.831 489.102 138.739 489.191 137.617C489.306 135.38 489.001 133.14 488.292 131.015C486.945 126.772 485.522 122.666 484.236 118.76C481.641 110.96 479.244 103.921 477.347 98.0054C475.451 92.0899 473.853 87.335 472.755 83.9904C472.231 82.3555 471.831 81.0826 471.507 80.159L471.207 79.1606C471.17 79.085 471.14 79.0055 471.12 78.9235Z" fill="#263238"/>
<path d="M435.976 61.7136C435.976 61.7136 435.315 61.3891 434.092 60.8899C432.348 60.2201 430.505 59.8488 428.638 59.7917C425.871 59.6968 423.118 60.2168 420.576 61.3142C417.485 62.6807 414.842 64.8911 412.951 67.6915C411.046 70.4839 410.025 73.7839 410.018 77.1638C410.044 79.934 410.464 82.6865 411.266 85.3382C411.915 87.6096 412.589 89.4192 413.038 90.6797C413.303 91.3199 413.52 91.979 413.687 92.6515C413.333 92.0529 413.036 91.4219 412.801 90.767C412.289 89.519 411.553 87.7469 410.829 85.463C409.941 82.7834 409.457 79.9862 409.394 77.1638C409.361 73.6562 410.406 70.2231 412.389 67.3296C414.347 64.4269 417.098 62.1482 420.314 60.7651C422.935 59.6617 425.774 59.1749 428.613 59.3424C430.52 59.4396 432.394 59.8836 434.142 60.6528C434.609 60.8684 435.06 61.1187 435.49 61.4016C435.667 61.4796 435.831 61.5848 435.976 61.7136Z" fill="#263238"/>
<path d="M436.55 110.548C436.75 110.427 436.958 110.323 437.174 110.236C437.799 109.954 438.446 109.724 439.109 109.549C440.161 109.239 441.246 109.055 442.341 109C443.831 108.92 445.322 109.145 446.722 109.662C449.916 110.785 452.849 114.042 454.297 118.398C454.991 120.735 454.991 123.224 454.297 125.561C453.527 128.098 452.147 130.408 450.278 132.288L450.353 131.951C452.013 136.506 453.823 141.448 455.695 146.603L455.807 146.915L455.495 147.027L452.637 147.975L446.397 150.06L446.085 150.159L445.985 149.847C444.275 144.681 442.403 139.863 440.993 135.133L441.268 135.346C438.828 135.143 436.502 134.227 434.579 132.712C432.838 131.372 431.412 129.669 430.398 127.72C429.483 125.993 429.027 124.059 429.075 122.104C429.133 120.107 429.631 118.147 430.535 116.365C431.439 114.583 432.726 113.022 434.304 111.796C434.953 111.269 435.682 110.847 436.463 110.548C435.758 110.966 435.075 111.42 434.416 111.908C432.683 113.374 431.355 115.261 430.56 117.387C429.877 118.99 429.558 120.725 429.625 122.466C429.692 124.207 430.143 125.912 430.947 127.458C431.944 129.332 433.336 130.968 435.028 132.251C436.862 133.69 439.08 134.559 441.405 134.747H441.617L441.68 134.934C443.052 139.576 444.937 144.431 446.672 149.623L446.26 149.423L452.5 147.339L455.345 146.378L455.146 146.802C453.286 141.648 451.489 136.693 449.842 132.138V131.951L449.991 131.801C451.806 129.999 453.159 127.786 453.935 125.349C454.597 123.113 454.597 120.733 453.935 118.498C452.575 114.304 449.767 111.122 446.722 109.999C445.374 109.479 443.935 109.237 442.491 109.287C441.413 109.312 440.341 109.459 439.296 109.724C437.436 110.186 436.563 110.61 436.55 110.548Z" fill="#263238"/>
<path d="M397.975 470.895L273.312 470.321C266.113 470.282 259.224 467.386 254.158 462.271C249.092 457.156 246.263 450.239 246.293 443.04L247.616 130.528C247.63 126.962 248.348 123.433 249.727 120.143C251.106 116.854 253.121 113.869 255.654 111.359C258.188 108.848 261.191 106.862 264.493 105.513C267.795 104.164 271.33 103.479 274.897 103.497L399.547 104.071C406.746 104.107 413.637 106.999 418.705 112.112C423.774 117.225 426.605 124.14 426.579 131.34L425.256 443.839C425.241 447.407 424.524 450.937 423.145 454.227C421.766 457.518 419.752 460.505 417.219 463.017C414.686 465.53 411.682 467.519 408.38 468.87C405.078 470.222 401.543 470.91 397.975 470.895Z" fill="#455A64"/>
<path d="M399.36 114.816H375.199C374.41 114.831 373.633 115 372.91 115.316C372.187 115.631 371.534 116.085 370.987 116.653C370.44 117.221 370.01 117.891 369.722 118.625C369.434 119.359 369.293 120.143 369.308 120.931V125.312C369.323 126.099 369.182 126.882 368.894 127.616C368.606 128.349 368.176 129.018 367.629 129.585C367.082 130.152 366.428 130.605 365.705 130.919C364.983 131.233 364.205 131.401 363.418 131.414L316.318 131.202C314.725 131.16 313.213 130.487 312.116 129.331C311.019 128.175 310.425 126.631 310.465 125.037V120.657C310.505 119.065 309.913 117.523 308.818 116.367C307.724 115.212 306.215 114.537 304.624 114.491H296.125L274.972 114.392C269.94 114.362 265.102 116.327 261.516 119.856C257.93 123.386 255.889 128.193 255.84 133.224L254.592 438.26C254.58 440.756 255.061 443.23 256.005 445.541C256.95 447.851 258.34 449.953 260.097 451.726C261.854 453.499 263.943 454.909 266.245 455.874C268.546 456.84 271.016 457.343 273.512 457.355L397.912 457.929C400.41 457.94 402.885 457.46 405.197 456.514C407.509 455.569 409.613 454.178 411.387 452.42C413.161 450.662 414.572 448.572 415.538 446.268C416.504 443.965 417.008 441.494 417.019 438.997L418.267 133.96C418.297 128.915 416.322 124.064 412.777 120.474C409.231 116.884 404.405 114.849 399.36 114.816Z" fill="white"/>
<path d="M382.624 417.231L290.123 416.832C289.162 416.832 288.388 415.784 288.4 414.511L288.5 390.312C288.5 389.064 289.286 387.991 290.247 387.991L382.749 388.415C383.282 388.507 383.758 388.801 384.079 389.236C384.4 389.671 384.54 390.213 384.471 390.749L384.384 414.923C384.384 416.208 383.585 417.244 382.624 417.231Z" fill="#1976D2"/>
<path d="M317.729 403.229C317.306 403.229 316.899 403.162 316.509 403.026C316.124 402.89 315.826 402.712 315.615 402.489L315.85 402.026C316.056 402.232 316.33 402.4 316.672 402.53C317.013 402.655 317.365 402.717 317.729 402.717C318.238 402.717 318.62 402.625 318.875 402.441C319.13 402.251 319.257 402.007 319.257 401.709C319.257 401.481 319.187 401.299 319.046 401.164C318.91 401.028 318.742 400.925 318.542 400.855C318.341 400.779 318.062 400.698 317.704 400.611C317.276 400.503 316.934 400.4 316.68 400.302C316.425 400.199 316.205 400.045 316.021 399.839C315.842 399.633 315.753 399.353 315.753 399.001C315.753 398.714 315.829 398.453 315.98 398.22C316.132 397.982 316.365 397.792 316.68 397.651C316.994 397.51 317.384 397.44 317.851 397.44C318.176 397.44 318.493 397.486 318.802 397.578C319.116 397.665 319.387 397.787 319.615 397.944L319.412 398.424C319.173 398.266 318.919 398.15 318.647 398.074C318.376 397.993 318.111 397.952 317.851 397.952C317.352 397.952 316.975 398.05 316.72 398.245C316.471 398.435 316.346 398.681 316.346 398.985C316.346 399.212 316.414 399.397 316.55 399.538C316.691 399.673 316.864 399.779 317.07 399.855C317.281 399.925 317.563 400.004 317.916 400.091C318.333 400.194 318.669 400.297 318.924 400.4C319.184 400.497 319.404 400.649 319.583 400.855C319.761 401.056 319.851 401.329 319.851 401.676C319.851 401.963 319.772 402.226 319.615 402.465C319.463 402.698 319.228 402.885 318.908 403.026C318.588 403.162 318.195 403.229 317.729 403.229ZM321.162 397.489H321.764V403.18H321.162V397.489ZM328.372 397.489V403.18H327.876L324.217 398.562V403.18H323.616V397.489H324.112L327.779 402.107V397.489H328.372ZM334.239 400.335H334.816V402.506C334.551 402.739 334.236 402.918 333.873 403.042C333.51 403.167 333.128 403.229 332.727 403.229C332.157 403.229 331.645 403.105 331.19 402.855C330.734 402.606 330.377 402.262 330.116 401.823C329.856 401.378 329.726 400.882 329.726 400.335C329.726 399.787 329.856 399.294 330.116 398.855C330.377 398.41 330.734 398.063 331.19 397.814C331.645 397.564 332.16 397.44 332.735 397.44C333.168 397.44 333.567 397.51 333.93 397.651C334.293 397.787 334.599 397.99 334.849 398.261L334.475 398.643C334.025 398.199 333.453 397.976 332.759 397.976C332.298 397.976 331.881 398.079 331.507 398.285C331.138 398.486 330.848 398.768 330.637 399.131C330.425 399.489 330.32 399.89 330.32 400.335C330.32 400.779 330.425 401.18 330.637 401.538C330.848 401.896 331.138 402.178 331.507 402.384C331.875 402.59 332.29 402.693 332.751 402.693C333.336 402.693 333.832 402.546 334.239 402.254V400.335ZM340.94 403.229C340.203 403.229 339.629 403.018 339.217 402.595C338.805 402.172 338.599 401.557 338.599 400.749V397.489H339.2V400.725C339.2 401.386 339.349 401.879 339.648 402.205C339.946 402.53 340.377 402.693 340.94 402.693C341.51 402.693 341.943 402.53 342.241 402.205C342.54 401.879 342.689 401.386 342.689 400.725V397.489H343.274V400.749C343.274 401.557 343.068 402.172 342.656 402.595C342.25 403.018 341.678 403.229 340.94 403.229ZM347.218 397.489C347.944 397.489 348.513 397.662 348.925 398.009C349.337 398.356 349.543 398.833 349.543 399.44C349.543 400.047 349.337 400.524 348.925 400.871C348.513 401.213 347.944 401.383 347.218 401.383H345.689V403.18H345.087V397.489H347.218ZM347.201 400.855C347.765 400.855 348.196 400.733 348.494 400.489C348.792 400.24 348.942 399.89 348.942 399.44C348.942 398.979 348.792 398.627 348.494 398.383C348.196 398.134 347.765 398.009 347.201 398.009H345.689V400.855H347.201Z" fill="#E8E8E3"/>
<path d="M308.573 204.485L276.475 204.339L276.448 210.23L308.546 210.376L308.573 204.485Z" fill="#1976D2"/>
<path opacity="0.1" d="M308.573 204.485L276.475 204.339L276.448 210.23L308.546 210.376L308.573 204.485Z" fill="black"/>
<path d="M402.667 240.652C402.919 240.626 403.167 240.568 403.404 240.477C403.749 240.342 404.049 240.112 404.27 239.814C404.491 239.516 404.623 239.162 404.652 238.792C404.652 236.808 404.652 233.913 404.652 230.194C404.652 228.334 404.652 226.25 404.652 223.954C404.652 223.392 404.652 222.805 404.652 222.219C404.733 221.65 404.609 221.07 404.302 220.584C404.13 220.351 403.907 220.161 403.649 220.029C403.391 219.897 403.107 219.826 402.817 219.823H400.87H382.836L278.454 219.436C278.187 219.431 277.922 219.491 277.683 219.611C277.444 219.73 277.238 219.906 277.081 220.122C276.78 220.61 276.664 221.191 276.756 221.757C276.756 223.005 276.756 224.253 276.756 225.501C276.756 227.997 276.756 230.493 276.756 232.989C276.756 234.237 276.756 235.485 276.756 236.733C276.705 237.314 276.705 237.899 276.756 238.48C276.822 238.73 276.944 238.96 277.113 239.155C277.281 239.35 277.493 239.503 277.73 239.604C277.976 239.701 278.239 239.748 278.504 239.741H284.856L312.574 239.891L359.499 240.178L391.136 240.427L399.734 240.527H401.968C402.48 240.527 402.73 240.527 402.73 240.527H401.968H399.734H391.136H359.499L312.574 240.377L284.856 240.265H278.504C278.154 240.279 277.805 240.22 277.48 240.09C277.152 239.95 276.859 239.737 276.626 239.466C276.392 239.196 276.224 238.876 276.132 238.53C276.06 238.203 276.035 237.867 276.058 237.532V236.608C276.058 235.36 276.058 234.112 276.058 232.864C276.058 230.368 276.058 227.872 276.058 225.376C276.058 224.128 276.058 222.88 276.058 221.632C276.034 221.3 276.034 220.966 276.058 220.634C276.104 220.267 276.246 219.918 276.469 219.623C276.685 219.322 276.97 219.077 277.3 218.91C277.63 218.742 277.996 218.657 278.366 218.662L382.749 219.236L400.783 219.361H402.73C403.073 219.361 403.41 219.444 403.715 219.603C404.019 219.761 404.28 219.991 404.477 220.272C404.829 220.815 404.971 221.467 404.876 222.107C404.876 222.693 404.876 223.28 404.876 223.841C404.876 226.113 404.876 228.197 404.876 230.081C404.876 233.825 404.789 236.696 404.764 238.692C404.733 239.076 404.594 239.444 404.362 239.751C404.129 240.058 403.814 240.293 403.453 240.427C403.217 240.574 402.945 240.651 402.667 240.652Z" fill="#E0E0E0"/>
<path d="M344.822 225.701H286.116V231.204H344.822V225.701Z" fill="#1976D2"/>
<path opacity="0.2" d="M344.822 225.701H286.116V231.204H344.822V225.701Z" fill="white"/>
<path d="M308.354 258.222L276.256 258.077L276.229 263.967L308.327 264.113L308.354 258.222Z" fill="#1976D2"/>
<path opacity="0.1" d="M308.354 258.222L276.256 258.077L276.229 263.967L308.327 264.113L308.354 258.222Z" fill="black"/>
<path d="M401.856 294.391C402.108 294.36 402.358 294.314 402.605 294.253C402.953 294.143 403.274 293.958 403.545 293.713C403.817 293.467 404.032 293.167 404.177 292.831C404.374 292.327 404.451 291.784 404.402 291.246C404.402 290.647 404.402 289.998 404.402 289.274C404.402 287.826 404.402 286.179 404.402 284.282V276.357C404.462 275.783 404.335 275.206 404.04 274.71C403.732 274.201 403.248 273.824 402.68 273.649C402.058 273.538 401.425 273.504 400.795 273.549H382.837L278.816 273.162C278.256 273.164 277.716 273.368 277.296 273.738C276.876 274.107 276.604 274.617 276.532 275.171C276.532 276.357 276.532 277.667 276.532 278.916C276.532 281.412 276.532 283.908 276.532 286.404C276.532 287.652 276.532 288.9 276.532 290.148C276.485 290.731 276.511 291.318 276.607 291.895C276.763 292.401 277.083 292.84 277.518 293.143C277.979 293.435 278.52 293.575 279.065 293.542H280.8H284.407L312.025 293.679L358.788 293.966L390.312 294.216L398.886 294.316H401.12H401.869H401.12H398.886H390.312H358.788L312 294.266L284.382 294.166H278.953C278.278 294.206 277.608 294.027 277.044 293.654C276.476 293.261 276.061 292.683 275.87 292.02C275.759 291.385 275.725 290.74 275.771 290.098C275.771 288.85 275.771 287.602 275.771 286.354C275.771 283.858 275.771 281.362 275.771 278.866C275.771 277.618 275.771 276.37 275.771 275.122C275.862 274.408 276.21 273.752 276.75 273.276C277.289 272.801 277.984 272.538 278.703 272.538L382.724 273.112L400.683 273.25C401.352 273.209 402.023 273.255 402.68 273.387C403.328 273.599 403.875 274.043 404.215 274.635C404.538 275.185 404.677 275.823 404.614 276.457C404.614 277.043 404.614 277.618 404.614 278.192C404.614 280.451 404.614 282.522 404.614 284.432C404.614 286.341 404.614 287.951 404.614 289.424C404.614 290.135 404.614 290.796 404.614 291.408C404.659 291.966 404.57 292.527 404.352 293.043C404.19 293.387 403.956 293.693 403.665 293.938C403.374 294.184 403.034 294.364 402.667 294.466C402.395 294.488 402.12 294.463 401.856 294.391Z" fill="#E0E0E0"/>
<path d="M308.112 314.293L276.014 314.148L275.987 320.038L308.086 320.184L308.112 314.293Z" fill="#1976D2"/>
<path opacity="0.1" d="M308.112 314.293L276.014 314.148L275.987 320.038L308.086 320.184L308.112 314.293Z" fill="black"/>
<path d="M401.606 350.438C401.859 350.409 402.109 350.363 402.355 350.301C402.702 350.191 403.022 350.008 403.293 349.765C403.564 349.522 403.78 349.224 403.928 348.891C404.123 348.387 404.2 347.844 404.152 347.306C404.152 346.694 404.152 346.058 404.152 345.322C404.152 343.886 404.152 342.227 404.152 340.33V332.405C404.212 331.831 404.085 331.253 403.79 330.757C403.475 330.258 402.993 329.887 402.43 329.709C401.809 329.594 401.176 329.556 400.546 329.597H382.587L278.566 329.21C278.007 329.211 277.467 329.416 277.046 329.785C276.626 330.155 276.355 330.664 276.282 331.219C276.282 332.467 276.282 333.715 276.282 334.963C276.282 337.459 276.282 339.955 276.282 342.451C276.282 343.699 276.282 344.947 276.282 346.195C276.236 346.774 276.261 347.357 276.357 347.93C276.507 348.439 276.829 348.88 277.268 349.178C277.726 349.477 278.27 349.617 278.816 349.577H284.244L311.863 349.727L358.625 350.014L390.15 350.264L398.723 350.364H400.957C401.457 350.364 401.706 350.364 401.706 350.364C401.706 350.364 401.457 350.364 400.957 350.364H398.723H390.15H358.625L311.863 350.226L284.244 350.114H278.816C278.14 350.16 277.469 349.98 276.906 349.602C276.338 349.209 275.924 348.631 275.733 347.967C275.621 347.333 275.588 346.688 275.633 346.045C275.633 344.797 275.633 343.549 275.633 342.301C275.633 339.805 275.633 337.309 275.633 334.813C275.633 333.565 275.633 332.317 275.633 331.007C275.722 330.295 276.067 329.639 276.605 329.163C277.143 328.687 277.836 328.424 278.554 328.424L382.574 328.998L400.533 329.135C401.202 329.094 401.873 329.14 402.53 329.272C403.178 329.484 403.725 329.929 404.065 330.52C404.388 331.07 404.528 331.708 404.464 332.342C404.464 332.929 404.464 333.516 404.464 334.077C404.464 336.336 404.464 338.408 404.464 340.317C404.464 342.227 404.464 343.836 404.464 345.309C404.464 346.02 404.464 346.682 404.464 347.293C404.512 347.852 404.422 348.413 404.202 348.928C404.04 349.273 403.806 349.578 403.515 349.824C403.224 350.069 402.884 350.249 402.517 350.351C402.225 350.451 401.913 350.481 401.606 350.438Z" fill="#E0E0E0"/>
<path d="M343.569 280.996L284.864 280.729L284.839 286.233L343.544 286.499L343.569 280.996Z" fill="#1976D2"/>
<path opacity="0.2" d="M343.569 280.996L284.864 280.729L284.839 286.233L343.544 286.499L343.569 280.996Z" fill="white"/>
<path d="M290.172 340.255C290.136 340.757 289.952 341.237 289.645 341.636C289.338 342.034 288.92 342.334 288.444 342.498C287.968 342.661 287.455 342.682 286.967 342.556C286.48 342.431 286.04 342.165 285.702 341.792C285.365 341.418 285.144 340.954 285.067 340.457C284.991 339.959 285.062 339.45 285.273 338.993C285.483 338.536 285.823 338.15 286.25 337.884C286.677 337.618 287.173 337.483 287.676 337.497C288.372 337.535 289.024 337.847 289.491 338.363C289.958 338.879 290.203 339.559 290.172 340.255Z" fill="#1976D2"/>
<path d="M298.122 340.292C298.147 340.644 298.099 340.997 297.981 341.33C297.863 341.662 297.678 341.967 297.438 342.225C297.197 342.483 296.906 342.688 296.583 342.829C296.259 342.969 295.91 343.042 295.558 343.042C295.205 343.042 294.856 342.969 294.533 342.829C294.209 342.688 293.918 342.483 293.677 342.225C293.437 341.967 293.252 341.662 293.134 341.33C293.017 340.997 292.968 340.644 292.993 340.292C292.968 339.94 293.017 339.587 293.134 339.255C293.252 338.922 293.437 338.618 293.677 338.36C293.918 338.102 294.209 337.896 294.533 337.755C294.856 337.615 295.205 337.542 295.558 337.542C295.91 337.542 296.259 337.615 296.583 337.755C296.906 337.896 297.197 338.102 297.438 338.36C297.678 338.618 297.863 338.922 297.981 339.255C298.099 339.587 298.147 339.94 298.122 340.292Z" fill="#1976D2"/>
<path d="M306.084 340.33C306.048 340.832 305.864 341.312 305.557 341.71C305.25 342.109 304.832 342.409 304.356 342.573C303.88 342.736 303.367 342.757 302.879 342.631C302.392 342.506 301.952 342.24 301.614 341.867C301.277 341.493 301.056 341.029 300.979 340.532C300.903 340.034 300.974 339.525 301.185 339.068C301.395 338.61 301.735 338.225 302.162 337.959C302.589 337.693 303.085 337.558 303.588 337.571C304.283 337.613 304.933 337.926 305.399 338.441C305.866 338.957 306.112 339.635 306.084 340.33Z" fill="#1976D2"/>
<path d="M314.034 340.367C313.997 340.869 313.814 341.349 313.507 341.748C313.2 342.147 312.782 342.446 312.306 342.61C311.83 342.774 311.317 342.794 310.829 342.669C310.342 342.543 309.902 342.277 309.564 341.904C309.226 341.531 309.006 341.067 308.929 340.569C308.853 340.072 308.924 339.563 309.134 339.105C309.345 338.648 309.684 338.262 310.112 337.996C310.539 337.73 311.035 337.596 311.538 337.609C312.232 337.651 312.882 337.963 313.349 338.479C313.816 338.994 314.062 339.672 314.034 340.367Z" fill="#1976D2"/>
<path d="M321.984 340.392C321.95 340.895 321.768 341.376 321.462 341.777C321.156 342.177 320.74 342.479 320.264 342.645C319.788 342.81 319.274 342.832 318.785 342.708C318.297 342.584 317.856 342.319 317.517 341.946C317.178 341.573 316.956 341.109 316.879 340.611C316.801 340.113 316.872 339.603 317.082 339.145C317.292 338.687 317.632 338.301 318.06 338.034C318.488 337.768 318.984 337.633 319.488 337.646C320.18 337.688 320.828 337.999 321.294 338.512C321.761 339.025 322.008 339.699 321.984 340.392Z" fill="#1976D2"/>
<path d="M329.946 340.429C329.912 340.93 329.733 341.409 329.43 341.808C329.127 342.208 328.714 342.51 328.241 342.678C327.769 342.845 327.258 342.871 326.771 342.752C326.284 342.633 325.842 342.374 325.5 342.007C325.159 341.641 324.932 341.182 324.847 340.688C324.763 340.194 324.825 339.686 325.025 339.226C325.226 338.767 325.556 338.376 325.976 338.102C326.396 337.828 326.887 337.683 327.388 337.684C328.091 337.71 328.755 338.013 329.234 338.528C329.714 339.043 329.97 339.726 329.946 340.429Z" fill="#1976D2"/>
<path d="M337.896 340.467C337.921 340.819 337.872 341.172 337.755 341.504C337.637 341.837 337.452 342.141 337.211 342.399C336.971 342.657 336.68 342.863 336.356 343.004C336.033 343.144 335.684 343.217 335.331 343.217C334.979 343.217 334.63 343.144 334.306 343.004C333.983 342.863 333.692 342.657 333.451 342.399C333.211 342.141 333.026 341.837 332.908 341.504C332.79 341.172 332.742 340.819 332.767 340.467C332.742 340.115 332.79 339.762 332.908 339.429C333.026 339.097 333.211 338.792 333.451 338.534C333.692 338.276 333.983 338.071 334.306 337.93C334.63 337.79 334.979 337.717 335.331 337.717C335.684 337.717 336.033 337.79 336.356 337.93C336.68 338.071 336.971 338.276 337.211 338.534C337.452 338.792 337.637 339.097 337.755 339.429C337.872 339.762 337.921 340.115 337.896 340.467Z" fill="#1976D2"/>
<path d="M345.846 340.504C345.812 341.004 345.632 341.484 345.329 341.883C345.026 342.283 344.613 342.585 344.141 342.752C343.668 342.92 343.157 342.946 342.67 342.827C342.183 342.708 341.742 342.449 341.4 342.082C341.058 341.715 340.831 341.257 340.747 340.763C340.662 340.269 340.724 339.76 340.925 339.301C341.125 338.842 341.456 338.451 341.876 338.177C342.295 337.903 342.786 337.757 343.287 337.759C343.99 337.785 344.654 338.088 345.134 338.603C345.613 339.118 345.869 339.801 345.846 340.504Z" fill="#1976D2"/>
<path d="M353.796 340.542C353.761 341.045 353.58 341.526 353.274 341.927C352.968 342.327 352.551 342.629 352.075 342.794C351.599 342.96 351.085 342.982 350.597 342.858C350.108 342.733 349.667 342.468 349.328 342.096C348.989 341.723 348.767 341.258 348.69 340.76C348.613 340.262 348.684 339.753 348.894 339.295C349.104 338.837 349.444 338.45 349.871 338.184C350.299 337.918 350.796 337.783 351.299 337.796C351.991 337.838 352.64 338.149 353.106 338.661C353.572 339.174 353.82 339.849 353.796 340.542Z" fill="#1976D2"/>
<g opacity="0.2">
<path opacity="0.2" d="M290.172 340.255C290.136 340.757 289.952 341.237 289.645 341.636C289.338 342.034 288.92 342.334 288.444 342.498C287.968 342.661 287.455 342.682 286.967 342.556C286.48 342.431 286.04 342.165 285.702 341.792C285.365 341.418 285.144 340.954 285.067 340.457C284.991 339.959 285.062 339.45 285.273 338.993C285.483 338.536 285.823 338.15 286.25 337.884C286.677 337.618 287.173 337.483 287.676 337.497C288.372 337.535 289.024 337.847 289.491 338.363C289.958 338.879 290.203 339.559 290.172 340.255Z" fill="white"/>
<path opacity="0.2" d="M298.122 340.292C298.147 340.644 298.099 340.997 297.981 341.33C297.863 341.662 297.678 341.967 297.438 342.225C297.197 342.483 296.906 342.688 296.583 342.829C296.259 342.969 295.91 343.042 295.558 343.042C295.205 343.042 294.856 342.969 294.533 342.829C294.209 342.688 293.918 342.483 293.677 342.225C293.437 341.967 293.252 341.662 293.134 341.33C293.017 340.997 292.968 340.644 292.993 340.292C292.968 339.94 293.017 339.587 293.134 339.255C293.252 338.922 293.437 338.618 293.677 338.36C293.918 338.102 294.209 337.896 294.533 337.755C294.856 337.615 295.205 337.542 295.558 337.542C295.91 337.542 296.259 337.615 296.583 337.755C296.906 337.896 297.197 338.102 297.438 338.36C297.678 338.618 297.863 338.922 297.981 339.255C298.099 339.587 298.147 339.94 298.122 340.292Z" fill="white"/>
<path opacity="0.2" d="M306.084 340.33C306.048 340.832 305.864 341.312 305.557 341.71C305.25 342.109 304.832 342.409 304.356 342.573C303.88 342.736 303.367 342.757 302.879 342.631C302.392 342.506 301.952 342.24 301.614 341.867C301.277 341.493 301.056 341.029 300.979 340.532C300.903 340.034 300.974 339.525 301.185 339.068C301.395 338.61 301.735 338.225 302.162 337.959C302.589 337.693 303.085 337.558 303.588 337.571C304.283 337.613 304.933 337.926 305.399 338.441C305.866 338.957 306.112 339.635 306.084 340.33Z" fill="white"/>
<path opacity="0.2" d="M314.034 340.367C313.997 340.869 313.814 341.349 313.507 341.748C313.2 342.147 312.782 342.446 312.306 342.61C311.83 342.774 311.317 342.794 310.829 342.669C310.342 342.543 309.902 342.277 309.564 341.904C309.226 341.531 309.006 341.067 308.929 340.569C308.853 340.072 308.924 339.563 309.134 339.105C309.345 338.648 309.684 338.262 310.112 337.996C310.539 337.73 311.035 337.596 311.538 337.609C312.232 337.651 312.882 337.963 313.349 338.479C313.816 338.994 314.062 339.672 314.034 340.367Z" fill="white"/>
<path opacity="0.2" d="M321.984 340.392C321.95 340.895 321.768 341.376 321.462 341.777C321.156 342.177 320.74 342.479 320.264 342.645C319.788 342.81 319.274 342.832 318.785 342.708C318.297 342.584 317.856 342.319 317.517 341.946C317.178 341.573 316.956 341.109 316.879 340.611C316.801 340.113 316.872 339.603 317.082 339.145C317.292 338.687 317.632 338.301 318.06 338.034C318.488 337.768 318.984 337.633 319.488 337.646C320.18 337.688 320.828 337.999 321.294 338.512C321.761 339.025 322.008 339.699 321.984 340.392Z" fill="white"/>
<path opacity="0.2" d="M329.946 340.429C329.912 340.93 329.733 341.409 329.43 341.808C329.127 342.208 328.714 342.51 328.241 342.678C327.769 342.845 327.258 342.871 326.771 342.752C326.284 342.633 325.842 342.374 325.5 342.007C325.159 341.641 324.932 341.182 324.847 340.688C324.763 340.194 324.825 339.686 325.025 339.226C325.226 338.767 325.556 338.376 325.976 338.102C326.396 337.828 326.887 337.683 327.388 337.684C328.091 337.71 328.755 338.013 329.234 338.528C329.714 339.043 329.97 339.726 329.946 340.429Z" fill="white"/>
<path opacity="0.2" d="M337.896 340.467C337.921 340.819 337.873 341.172 337.755 341.504C337.637 341.837 337.452 342.141 337.212 342.399C336.971 342.657 336.68 342.863 336.356 343.004C336.033 343.144 335.684 343.217 335.331 343.217C334.979 343.217 334.63 343.144 334.306 343.004C333.983 342.863 333.692 342.657 333.451 342.399C333.211 342.141 333.026 341.837 332.908 341.504C332.79 341.172 332.742 340.819 332.767 340.467C332.742 340.115 332.79 339.762 332.908 339.429C333.026 339.097 333.211 338.792 333.451 338.534C333.692 338.276 333.983 338.071 334.306 337.93C334.63 337.79 334.979 337.717 335.331 337.717C335.684 337.717 336.033 337.79 336.356 337.93C336.68 338.071 336.971 338.276 337.212 338.534C337.452 338.792 337.637 339.097 337.755 339.429C337.873 339.762 337.921 340.115 337.896 340.467Z" fill="white"/>
<path opacity="0.2" d="M345.846 340.504C345.812 341.004 345.632 341.484 345.329 341.883C345.026 342.283 344.613 342.585 344.141 342.752C343.668 342.92 343.157 342.946 342.67 342.827C342.183 342.708 341.742 342.449 341.4 342.082C341.058 341.715 340.831 341.257 340.747 340.763C340.662 340.269 340.724 339.76 340.925 339.301C341.125 338.842 341.456 338.451 341.876 338.177C342.295 337.903 342.786 337.757 343.287 337.759C343.99 337.785 344.654 338.088 345.134 338.603C345.613 339.118 345.869 339.801 345.846 340.504Z" fill="white"/>
<path opacity="0.2" d="M353.796 340.542C353.761 341.045 353.58 341.526 353.274 341.927C352.968 342.327 352.551 342.629 352.075 342.794C351.599 342.96 351.085 342.982 350.597 342.858C350.108 342.733 349.667 342.468 349.328 342.095C348.989 341.723 348.767 341.258 348.69 340.76C348.613 340.262 348.684 339.753 348.894 339.295C349.104 338.837 349.444 338.45 349.871 338.184C350.299 337.918 350.796 337.783 351.3 337.796C351.991 337.838 352.64 338.149 353.106 338.661C353.572 339.174 353.82 339.849 353.796 340.542Z" fill="white"/>
</g>
<path d="M342.501 160.38C343.368 159.999 344.104 159.37 344.616 158.574C345.129 157.777 345.396 156.847 345.384 155.9C345.416 155.284 345.323 154.669 345.11 154.09C344.896 153.512 344.567 152.983 344.143 152.535C343.718 152.088 343.207 151.732 342.641 151.488C342.074 151.245 341.464 151.119 340.848 151.119C340.231 151.119 339.621 151.245 339.054 151.488C338.488 151.732 337.977 152.088 337.552 152.535C337.128 152.983 336.799 153.512 336.585 154.09C336.372 154.669 336.279 155.284 336.311 155.9C336.292 156.857 336.557 157.798 337.072 158.604C337.588 159.41 338.33 160.046 339.206 160.43C332.218 161.479 332.53 169.067 332.53 169.067L349.053 169.141C349.053 169.141 349.44 161.416 342.501 160.38Z" fill="#1976D2"/>
<path opacity="0.1" d="M342.501 160.38C343.368 159.999 344.104 159.37 344.616 158.574C345.129 157.777 345.396 156.847 345.384 155.9C345.416 155.284 345.323 154.669 345.11 154.09C344.896 153.512 344.567 152.983 344.143 152.535C343.718 152.088 343.207 151.732 342.641 151.488C342.074 151.245 341.464 151.119 340.848 151.119C340.231 151.119 339.621 151.245 339.054 151.488C338.488 151.732 337.977 152.088 337.552 152.535C337.128 152.983 336.799 153.512 336.585 154.09C336.372 154.669 336.279 155.284 336.311 155.9C336.292 156.857 336.557 157.798 337.072 158.604C337.588 159.41 338.33 160.046 339.206 160.43C332.218 161.479 332.53 169.067 332.53 169.067L349.053 169.141C349.053 169.141 349.44 161.416 342.501 160.38Z" fill="black"/>
<path d="M369.351 174.035L310.459 173.768L310.427 180.807L369.319 181.074L369.351 174.035Z" fill="#1976D2"/>
<path opacity="0.2" d="M369.351 174.035L310.459 173.768L310.427 180.807L369.319 181.074L369.351 174.035Z" fill="white"/>
<path d="M152.843 210.513H152.256L150.559 210.637C149.64 210.693 148.727 210.814 147.826 210.999C147.242 211.081 146.663 211.194 146.091 211.336L144.156 211.873C140.864 212.883 137.758 214.422 134.959 216.428C131.261 219.112 128.173 222.549 125.898 226.512C124.561 228.797 123.497 231.23 122.728 233.763C121.92 236.516 121.455 239.358 121.343 242.224C121.269 243.73 121.294 245.239 121.418 246.742C121.418 247.503 121.63 248.265 121.73 249.038C121.814 249.818 121.96 250.59 122.167 251.347C123.289 256.355 125.566 261.032 128.816 265.003C132.066 268.975 136.2 272.132 140.887 274.223C144.279 275.687 147.915 276.504 151.607 276.632C155.421 276.841 159.238 276.294 162.839 275.022L163.937 274.61H164.087L164.212 274.685L179.949 282.672L179.487 283.071C177.803 277.855 176.18 272.8 174.608 267.946V267.758L174.745 267.621C178.563 263.776 181.397 259.067 183.007 253.893C184.465 249.163 184.891 244.175 184.255 239.267C183.689 234.904 182.286 230.692 180.124 226.861C178.26 223.571 175.855 220.618 173.01 218.125C170.663 216.153 168.066 214.5 165.285 213.208C163.181 212.301 160.99 211.611 158.746 211.149L156.25 210.737L154.44 210.6L153.342 210.525H152.967C153.092 210.511 153.217 210.511 153.342 210.525H154.452L156.262 210.6L158.758 210.962C161.03 211.39 163.251 212.055 165.385 212.946C168.213 214.222 170.858 215.872 173.247 217.851C176.144 220.332 178.6 223.286 180.511 226.587C182.735 230.459 184.18 234.728 184.766 239.154C185.455 244.139 185.059 249.213 183.606 254.03C181.985 259.312 179.107 264.121 175.219 268.045L175.294 267.721C176.867 272.576 178.501 277.63 180.199 282.834L180.436 283.596L179.724 283.234L163.987 275.259H164.262L163.139 275.671C159.468 276.962 155.58 277.522 151.694 277.318C147.923 277.174 144.211 276.328 140.749 274.822C134.147 271.995 128.654 267.08 125.112 260.832C123.482 257.946 122.292 254.834 121.58 251.597C121.385 250.821 121.239 250.033 121.143 249.238C121.044 248.452 120.881 247.678 120.844 246.904C120.506 242.464 120.975 237.999 122.229 233.725C123.017 231.158 124.111 228.694 125.486 226.387C127.815 222.388 130.967 218.93 134.734 216.241C137.579 214.229 140.738 212.703 144.082 211.723L146.041 211.224C146.618 211.09 147.201 210.986 147.788 210.912C148.699 210.743 149.621 210.643 150.546 210.613L152.256 210.55C152.45 210.524 152.646 210.511 152.843 210.513Z" fill="#5E9FE0"/>
<path d="M159.956 239.616H157.647L152.655 232.602V227.997C152.655 227.997 149.086 227.772 149.51 233.8C149.935 239.828 149.51 238.293 149.51 238.293C149.51 238.293 141.935 238.293 141.311 238.98C140.687 239.666 140.65 246.979 140.562 251.06C140.514 252.044 140.797 253.015 141.364 253.82C141.932 254.625 142.752 255.218 143.695 255.503C143.959 255.576 144.232 255.614 144.506 255.615C146.403 255.615 156.05 254.08 156.05 254.08H160.031L159.956 239.616Z" fill="#5E9FE0"/>
<path d="M166.558 238.38L165.135 254.155H161.192V238.705L166.558 238.38Z" fill="#5E9FE0"/>
<path d="M213.595 559.528V548.858L194.463 548.721L194.301 564.857L195.487 564.945C200.766 565.282 222.344 565.781 225.888 564.683C229.832 563.46 213.595 559.528 213.595 559.528Z" fill="#1976D2"/>
<path d="M226.337 563.684C226.337 563.859 219.174 564.009 210.35 564.009C201.527 564.009 194.364 563.859 194.364 563.684C194.364 563.509 201.527 563.36 210.35 563.36C219.174 563.36 226.337 563.509 226.337 563.684Z" fill="#263238"/>
<path d="M213.932 561.712C213.77 561.625 213.932 561.063 214.319 560.464C214.706 559.865 215.23 559.616 215.355 559.74C215.48 559.865 215.218 560.339 214.843 560.851C214.469 561.363 214.094 561.8 213.932 561.712Z" fill="#263238"/>
<path d="M215.155 562.411C214.98 562.411 215.068 561.712 215.442 561.051C215.817 560.389 216.316 559.99 216.453 560.09C216.59 560.19 216.366 560.751 216.016 561.338C215.667 561.924 215.317 562.474 215.155 562.411Z" fill="#263238"/>
<path d="M200.129 563.634C200.054 563.634 199.767 563.41 199.356 562.935C198.853 562.326 198.293 561.766 197.683 561.263C197.084 560.784 196.37 560.47 195.612 560.352C195.025 560.277 194.651 560.352 194.613 560.277C194.576 560.202 194.938 559.94 195.624 559.89C196.53 559.871 197.414 560.172 198.12 560.739C198.782 561.278 199.34 561.934 199.767 562.673C200.054 563.222 200.204 563.584 200.129 563.634Z" fill="#263238"/>
<path d="M213.995 559.703C214.082 559.853 213.757 560.227 213.208 560.427C212.659 560.627 212.172 560.552 212.148 560.427C212.123 560.302 212.509 560.04 212.984 559.865C213.458 559.691 213.895 559.553 213.995 559.703Z" fill="#263238"/>
<path d="M213.695 558.667C213.695 558.854 213.196 559.004 212.547 559.017C211.898 559.029 211.386 558.879 211.399 558.705C211.411 558.53 211.923 558.368 212.547 558.355C213.171 558.343 213.67 558.492 213.695 558.667Z" fill="#263238"/>
<path d="M260.707 559.528V548.858L241.575 548.721L241.413 564.695L242.599 564.782C247.878 565.119 269.468 565.781 273 564.683C276.944 563.46 260.707 559.528 260.707 559.528Z" fill="#1976D2"/>
<path d="M273.449 563.709C273.449 563.884 266.298 564.034 257.462 564.034C248.627 564.034 241.488 563.884 241.488 563.709C241.488 563.534 248.639 563.385 257.462 563.385C266.286 563.385 273.449 563.534 273.449 563.709Z" fill="#263238"/>
<path d="M261.044 561.712C260.894 561.625 261.044 561.063 261.431 560.464C261.818 559.865 262.342 559.616 262.467 559.74C262.592 559.865 262.33 560.339 261.955 560.851C261.581 561.363 261.206 561.8 261.044 561.712Z" fill="#263238"/>
<path d="M262.267 562.411C262.105 562.411 262.18 561.712 262.567 561.051C262.954 560.389 263.44 559.99 263.578 560.09C263.715 560.19 263.478 560.751 263.128 561.338C262.779 561.924 262.442 562.474 262.267 562.411Z" fill="#263238"/>
<path d="M247.241 563.634C247.166 563.634 246.892 563.41 246.467 562.935C245.965 562.326 245.405 561.766 244.795 561.263C244.196 560.784 243.482 560.47 242.723 560.352C242.149 560.277 241.763 560.352 241.725 560.277C241.688 560.202 242.05 559.94 242.736 559.89C243.642 559.871 244.525 560.172 245.232 560.739C245.897 561.275 246.456 561.931 246.879 562.673C247.166 563.222 247.316 563.584 247.241 563.634Z" fill="#263238"/>
<path d="M261.107 559.703C261.194 559.853 260.869 560.227 260.32 560.427C259.771 560.627 259.284 560.552 259.26 560.427C259.235 560.302 259.621 560.04 260.096 559.865C260.57 559.691 261.007 559.553 261.107 559.703Z" fill="#263238"/>
<path d="M260.832 558.667C260.832 558.854 260.333 559.004 259.684 559.017C259.035 559.029 258.536 558.879 258.548 558.705C258.561 558.53 259.06 558.368 259.684 558.355C260.308 558.343 260.832 558.492 260.832 558.667Z" fill="#263238"/>
<path d="M331.194 242.661C330.695 242.149 329.46 242.399 329.46 242.399C329.583 241.68 329.583 240.946 329.46 240.228C329.235 239.529 327.662 239.666 327.662 239.666C327.59 239.077 327.59 238.482 327.662 237.894C327.675 237.763 327.647 237.632 327.582 237.518C327.517 237.404 327.419 237.313 327.3 237.257C326.557 236.954 325.757 236.809 324.954 236.833C323.993 236.147 327.887 230.693 329.335 228.946C330.782 227.198 330.52 225.838 329.235 225.838C328.349 225.838 323.806 231.08 322.408 232.839C321.011 234.599 317.304 239.491 317.179 235.585C317.054 231.679 315.482 228.733 314.496 228.234C313.51 227.735 312.462 228.908 312.998 229.994C313.47 231.227 313.764 232.522 313.872 233.838C314.008 234.886 313.961 235.95 313.735 236.983C313.321 238.904 312.758 240.79 312.05 242.624H311.95C311.95 242.624 284.719 268.744 282.747 270.604C280.987 272.276 245.594 268.62 238.493 267.871C236.08 267.518 233.643 267.351 231.204 267.372C228.122 267.509 227.573 267.946 224.503 267.983C216.749 268.069 209.014 268.749 201.365 270.017C197.901 270.606 194.666 272.135 192.012 274.437C189.357 276.739 187.387 279.726 186.314 283.071C179.163 305.411 162.964 358.288 160.106 387.991C157.946 391.907 155.997 395.935 154.265 400.059C152.256 405.525 152.743 405.712 153.417 405.837C155.239 406.174 157.31 396.365 158.084 398.736C158.858 401.107 154.153 410.43 156.062 410.704C158.558 411.054 160.543 400.72 160.78 399.897C161.017 399.073 162.252 399.335 162.028 400.109C161.666 401.207 158.159 412.851 160.605 413.225C161.953 413.425 162.103 410.966 162.103 410.966C162.103 410.966 164.599 399.822 165.734 400.046C166.87 400.271 165.66 406.848 165.085 409.044C164.511 411.241 165.31 412.352 166.483 411.815C167.282 411.441 169.191 404.764 169.716 402.592C170.24 400.421 171.55 394.405 173.31 397.887C175.069 401.369 177.74 403.391 178.838 403.441C179.086 403.412 179.319 403.31 179.508 403.148C179.697 402.986 179.833 402.771 179.899 402.531C179.965 402.29 179.957 402.036 179.877 401.8C179.797 401.564 179.648 401.358 179.45 401.207C178.505 400.285 177.695 399.234 177.041 398.087C176.459 397.193 176.037 396.205 175.793 395.167C175.29 393.097 174.998 390.981 174.92 388.852L174.72 387.604C177.516 373.764 185.565 333.141 197.184 307.195L201.951 317.004L204.023 324.268L191.318 355.63L245.507 354.919L237.42 323.794L247.241 291.346C257.862 291.583 285.131 291.982 289.673 289.923C295.389 287.427 324.954 250.087 324.954 250.087C326.881 248.589 328.727 246.989 330.483 245.294C330.483 245.294 332.28 243.784 331.194 242.661Z" fill="#FFBE9D"/>
<path d="M188.935 332.455C190.507 327.088 198.582 300.556 198.582 300.556C198.582 300.556 202.55 322.184 201.502 324.792C200.538 327.025 199.399 329.178 198.095 331.232C188.935 345.172 190.133 352.148 190.133 352.148L245.482 350.463C245.606 342.726 241.026 324.73 240.078 321.859C239.129 318.989 242.287 309.591 242.287 309.591C242.287 309.591 248.527 303.239 248.302 299.969C248.184 297.032 247.82 294.11 247.216 291.233L280.912 292.481L279.852 269.643L231.454 264.801C229.769 269.555 214.531 267.222 214.531 267.222C198.083 267.771 197.059 270.791 190.22 276.107C183.381 281.424 172.062 327.051 172.062 327.051L188.935 332.455Z" fill="#5E9FE0"/>
<path d="M221.657 327.051C220.698 327.222 219.721 327.273 218.749 327.201C216.94 327.201 214.456 327.076 211.723 326.801C208.99 326.527 206.519 326.14 204.759 325.79C203.789 325.665 202.838 325.422 201.926 325.067C202.902 325.067 203.876 325.159 204.834 325.341C206.606 325.566 209.065 325.878 211.786 326.152C214.506 326.427 216.977 326.614 218.762 326.739C219.735 326.751 220.704 326.856 221.657 327.051Z" fill="#263238"/>
<path d="M225.451 322.346C224.492 322.816 223.477 323.164 222.431 323.382C217.452 324.69 212.315 325.299 207.168 325.191C206.103 325.226 205.038 325.125 203.998 324.892C205.049 324.759 206.109 324.705 207.168 324.73C209.127 324.667 211.823 324.53 214.793 324.18C217.763 323.831 220.409 323.332 222.281 322.933C223.321 322.655 224.381 322.459 225.451 322.346Z" fill="#263238"/>
<path d="M244.071 301.355C244.046 302.306 243.916 303.252 243.684 304.175C243.36 305.91 242.861 308.281 242.224 310.877C241.588 313.473 240.976 315.869 240.427 317.491C240.206 318.42 239.88 319.32 239.454 320.174C239.523 319.226 239.699 318.288 239.978 317.379C240.452 315.432 240.989 313.186 241.588 310.727C242.187 308.268 242.761 306.022 243.235 304.075C243.404 303.138 243.685 302.225 244.071 301.355Z" fill="#263238"/>
<path d="M189.521 329.272C186.634 328.826 183.785 328.163 180.997 327.288C178.149 326.622 175.355 325.746 172.636 324.667C175.522 325.12 178.371 325.784 181.16 326.652C184.008 327.315 186.803 328.191 189.521 329.272Z" fill="#263238"/>
<path d="M247.815 290.959C247.345 291.04 246.863 291.04 246.393 290.959C245.089 290.825 243.809 290.519 242.586 290.048C240.545 289.28 238.686 288.095 237.13 286.567C235.574 285.038 234.355 283.202 233.551 281.174C232.662 278.944 232.283 276.544 232.44 274.148C232.496 272.172 233.087 270.249 234.15 268.582C234.898 267.459 236.015 266.634 237.307 266.248C237.653 266.153 238.01 266.107 238.368 266.111C238.618 266.111 238.742 266.111 238.742 266.111C238.742 266.111 238.218 266.111 237.382 266.448C236.196 266.886 235.19 267.707 234.524 268.782C232.827 271.452 232.353 276.332 234.162 280.887C235.004 283.035 236.323 284.964 238.019 286.528C239.408 287.808 241.008 288.839 242.748 289.573C244.382 290.219 246.081 290.683 247.815 290.959Z" fill="#263238"/>
<path d="M276.906 292.032C276.594 288.205 276.494 284.364 276.607 280.525C276.509 276.691 276.626 272.853 276.956 269.031C277.269 272.854 277.369 276.691 277.256 280.525C277.361 284.364 277.244 288.206 276.906 292.032Z" fill="#263238"/>
<path d="M231.13 266.198C231.267 263.415 231.554 260.27 231.554 260.27C231.554 260.27 238.443 259.509 238.855 252.395C239.267 245.282 238.855 228.871 238.855 228.871L226.375 222.481L212.522 233.376L214.656 268.944L227.361 269.755C228.332 269.782 229.274 269.423 229.98 268.756C230.687 268.089 231.1 267.169 231.13 266.198Z" fill="#FFBE9D"/>
<path d="M232.365 246.767C232.365 246.767 232.365 246.904 232.253 247.067C232.16 247.184 232.04 247.278 231.903 247.338C231.766 247.399 231.616 247.426 231.467 247.416C230.668 247.416 229.894 246.492 229.619 245.419C229.489 244.899 229.489 244.355 229.619 243.834C229.645 243.607 229.727 243.39 229.858 243.203C229.989 243.015 230.164 242.863 230.368 242.761C230.536 242.692 230.725 242.692 230.892 242.761C231.017 242.823 231.118 242.924 231.18 243.048C231.267 243.26 231.18 243.397 231.18 243.385C231.18 243.372 231.179 243.26 231.055 243.135C230.989 243.046 230.894 242.984 230.785 242.961C230.677 242.938 230.564 242.955 230.468 243.011C230.315 243.103 230.188 243.233 230.098 243.388C230.009 243.543 229.96 243.718 229.956 243.897C229.851 244.361 229.851 244.843 229.956 245.307C230.206 246.28 230.88 247.067 231.479 247.141C231.596 247.157 231.715 247.149 231.829 247.117C231.943 247.084 232.049 247.029 232.14 246.954C232.29 246.854 232.34 246.755 232.365 246.767Z" fill="#EB996E"/>
<path d="M243.135 225.027C242.174 221.757 238.692 220.135 235.523 219.236C230.693 217.863 225.476 217.264 220.759 218.999C216.041 220.734 210.375 223.779 210.375 228.983C207.592 228.758 205.995 231.192 204.897 234.212C204.194 236.052 203.774 237.988 203.649 239.953C203.299 246.767 201.39 256.177 196.972 261.169C194.476 263.952 191.019 265.874 189.596 269.343C188.348 272.351 188.997 275.92 187.836 278.965C186.801 281.649 184.517 283.558 182.844 285.892C181.141 288.539 180.138 291.576 179.931 294.718C179.723 297.859 180.318 301.002 181.659 303.851C183.009 306.626 184.911 309.097 187.247 311.114C189.584 313.131 192.307 314.651 195.25 315.582C201.079 317.355 207.295 317.416 213.158 315.756C217.559 314.704 221.663 312.669 225.164 309.804C228.746 306.878 231.207 302.804 232.128 298.272C233.014 293.18 231.591 288.001 230.531 282.934C227.211 266.922 228.159 266.086 232.353 251.222C232.452 250.96 232.502 250.686 232.577 250.424C232.652 250.162 232.69 250.037 232.74 249.837C232.859 249.25 232.921 248.652 232.927 248.052C232.314 248.28 231.649 248.328 231.011 248.191C230.372 248.054 229.785 247.738 229.32 247.279C228.854 246.789 228.529 246.183 228.379 245.524C228.23 244.865 228.262 244.177 228.471 243.535C228.766 242.832 229.205 242.199 229.759 241.676C230.314 241.154 230.972 240.754 231.691 240.502C233.076 239.928 234.562 239.628 235.922 238.992C238.805 237.619 240.802 234.774 242.162 231.791C243.28 229.724 243.625 227.326 243.135 225.027Z" fill="#263238"/>
<path d="M232.864 247.104C233.128 247.494 233.346 247.912 233.513 248.352C233.888 249.138 234.387 250.249 234.936 251.534L235.036 251.772H234.774L233.526 251.884C232.665 251.884 231.941 252.046 231.092 252.034C231.018 252.017 230.95 251.982 230.893 251.932C230.836 251.882 230.793 251.818 230.768 251.747C230.73 251.633 230.73 251.511 230.768 251.397C230.796 251.229 230.834 251.062 230.88 250.898L231.105 250.012C231.217 249.421 231.393 248.843 231.629 248.29C231.606 248.892 231.518 249.49 231.367 250.074L231.192 250.96C231.13 251.26 231.017 251.722 231.192 251.684C231.816 251.684 232.702 251.547 233.526 251.497L234.774 251.385L234.611 251.659C234.075 250.411 233.626 249.238 233.363 248.427C233.134 248.013 232.965 247.567 232.864 247.104Z" fill="#5E9FE0"/>
<path d="M190.133 352.148L245.482 350.463L269.568 444.488L265.138 552.34H235.872L239.454 446.784L218.051 381.326L221.345 556.521L191.768 556.957L188.66 392.284C188.523 387.704 187.025 377.383 187.587 372.84L190.133 352.148Z" fill="#263238"/>
<path d="M225.414 382.662C224.508 382.719 223.598 382.664 222.706 382.5C221.033 382.3 218.749 381.95 216.241 381.451C213.732 380.952 211.486 380.378 209.864 379.916C208.996 379.726 208.157 379.424 207.368 379.018C207.368 378.83 211.436 379.804 216.428 380.815C221.42 381.826 225.439 382.475 225.414 382.662Z" fill="#455A64"/>
<path d="M264.838 546.424C264.838 546.599 258.211 546.749 250.037 546.749C241.862 546.749 235.223 546.599 235.223 546.424C235.223 546.25 241.85 546.1 250.037 546.1C258.224 546.1 264.838 546.237 264.838 546.424Z" fill="#455A64"/>
<path d="M221.083 551.965C221.083 552.153 214.644 552.29 206.706 552.29C198.769 552.29 192.342 552.153 192.342 551.965C192.342 551.778 198.781 551.641 206.706 551.641C214.631 551.641 221.083 551.791 221.083 551.965Z" fill="#455A64"/>
<path d="M217.264 551.516C217.09 551.516 216.316 513.24 215.53 466.028C214.743 418.816 214.282 380.515 214.444 380.515C214.606 380.515 215.405 418.779 216.179 466.016C216.952 513.252 217.451 551.516 217.264 551.516Z" fill="#455A64"/>
<path d="M260.907 546.424C260.893 546.254 260.893 546.083 260.907 545.913V544.415C260.907 543.067 261.007 541.133 261.082 538.674C261.256 533.682 261.506 526.431 261.818 517.546C262.492 499.674 263.44 475.039 264.476 447.845C264.476 447.583 264.476 447.333 264.476 447.109V447.196C257.924 420.988 251.996 397.201 247.691 379.991L242.699 359.636C242.124 357.253 241.688 355.393 241.376 354.095C241.226 353.484 241.126 353.009 241.039 352.647C240.99 352.485 240.961 352.317 240.951 352.148C241.016 352.305 241.066 352.468 241.101 352.635C241.201 352.984 241.326 353.459 241.5 354.058C241.837 355.306 242.324 357.203 242.948 359.574C244.196 364.391 245.956 371.33 248.152 379.879C252.495 397.076 258.486 420.801 265.125 447.046V447.133C265.125 447.358 265.125 447.62 265.125 447.87C264.014 475.064 263.003 499.687 262.267 517.558C261.88 526.456 261.556 533.657 261.331 538.674C261.206 541.17 261.107 543.067 261.044 544.415C261.044 545.052 260.969 545.551 260.957 545.913C260.959 546.084 260.942 546.256 260.907 546.424Z" fill="#455A64"/>
<path d="M251.36 444.912C249.258 445.603 247.092 446.084 244.895 446.347C242.199 446.809 239.903 447.133 238.867 447.183V446.934C239.204 447.034 239.379 447.096 239.379 447.146C239.379 447.196 239.167 447.146 238.817 447.146H238.068L238.817 446.921C239.791 446.634 242.087 446.16 244.783 445.673C246.945 445.204 249.148 444.949 251.36 444.912Z" fill="#455A64"/>
<path d="M250.848 448.494C248.901 448.583 246.951 448.495 245.02 448.232C243.07 448.192 241.128 447.979 239.217 447.595C243.117 447.277 247.043 447.58 250.848 448.494Z" fill="#455A64"/>
<path opacity="0.2" d="M189.896 354.132C190.551 354.974 191.377 355.668 192.319 356.169C193.261 356.67 194.298 356.967 195.362 357.04C197.591 357.304 199.846 357.262 202.064 356.915C216.353 355.331 231.492 353.87 245.482 350.463C227.373 351.474 208.241 351.137 190.133 352.148L189.946 353.696" fill="black"/>
<g opacity="0.2">
<path opacity="0.2" d="M208.553 379.654L218.762 419.266L218.051 381.326L208.553 379.654Z" fill="black"/>
</g>
</svg>
