<svg width="323" height="119" viewBox="0 0 323 119" fill="none" xmlns="http://www.w3.org/2000/svg">
<path d="M146.305 30.4015V92.9416" stroke="black"/>
<path d="M171.607 93.6191C173.879 93.6191 175.904 93.243 177.68 92.4899C179.471 91.7368 180.885 90.6528 181.924 89.2378C182.962 87.8072 183.481 86.0836 183.481 84.0661C183.481 82.5304 183.196 81.2582 182.624 80.2494C182.067 79.2256 181.359 78.4051 180.501 77.7878C179.658 77.1554 178.794 76.6736 177.905 76.3424C177.017 75.9961 176.243 75.7326 175.58 75.552L169.214 73.6775C168.371 73.4366 167.498 73.1279 166.595 72.7516C165.707 72.3752 164.955 71.8558 164.338 71.1933C163.736 70.5308 163.435 69.65 163.435 68.551C163.435 67.4669 163.765 66.5034 164.428 65.6602C165.09 64.802 165.993 64.1321 167.137 63.6502C168.28 63.1534 169.575 62.9125 171.02 62.9276C173.292 62.9426 175.241 63.5825 176.867 64.8472C178.507 66.0969 179.493 67.7755 179.824 69.8834L183.301 69.2511C182.774 66.3302 181.412 64.0266 179.215 62.3404C177.017 60.639 174.293 59.7808 171.042 59.7658C168.906 59.7508 167.001 60.1121 165.331 60.8498C163.66 61.5725 162.343 62.6038 161.38 63.9438C160.417 65.2687 159.935 66.8496 159.935 68.6865C159.935 70.8695 160.59 72.5709 161.899 73.7904C163.224 74.9949 164.879 75.8907 166.866 76.4779L175.106 78.9396C175.859 79.1654 176.619 79.474 177.386 79.8655C178.154 80.257 178.794 80.799 179.305 81.4915C179.832 82.1841 180.095 83.0875 180.095 84.2016C180.095 85.4814 179.734 86.588 179.012 87.5215C178.289 88.4552 177.296 89.1779 176.032 89.6895C174.782 90.1864 173.353 90.4348 171.742 90.4348C169.319 90.4348 167.235 89.8398 165.489 88.6507C163.743 87.4459 162.599 85.7901 162.057 83.6822L158.671 84.2468C159.047 86.174 159.823 87.8376 160.996 89.2378C162.17 90.638 163.66 91.7221 165.466 92.4899C167.287 93.243 169.335 93.6191 171.607 93.6191ZM194.518 92.9416H197.859V79.3235L208.718 60.4207H204.88L196.189 75.5294L187.452 60.4207H183.614L194.518 79.3235V92.9416ZM221.784 93.6191C224.056 93.6191 226.081 93.243 227.857 92.4899C229.648 91.7368 231.062 90.6528 232.101 89.2378C233.139 87.8072 233.658 86.0836 233.658 84.0661C233.658 82.5304 233.373 81.2582 232.801 80.2494C232.244 79.2256 231.536 78.4051 230.678 77.7878C229.835 77.1554 228.971 76.6736 228.082 76.3424C227.194 75.9961 226.42 75.7326 225.757 75.552L219.391 73.6775C218.548 73.4366 217.675 73.1279 216.772 72.7516C215.884 72.3752 215.132 71.8558 214.515 71.1933C213.913 70.5308 213.612 69.65 213.612 68.551C213.612 67.4669 213.942 66.5034 214.605 65.6602C215.267 64.802 216.17 64.1321 217.314 63.6502C218.457 63.1534 219.752 62.9125 221.197 62.9276C223.469 62.9426 225.418 63.5825 227.044 64.8472C228.684 66.0969 229.67 67.7755 230.001 69.8834L233.478 69.2511C232.951 66.3302 231.589 64.0266 229.392 62.3404C227.194 60.639 224.47 59.7808 221.219 59.7658C219.083 59.7508 217.178 60.1121 215.508 60.8498C213.837 61.5725 212.52 62.6038 211.557 63.9438C210.594 65.2687 210.112 66.8496 210.112 68.6865C210.112 70.8695 210.767 72.5709 212.076 73.7904C213.401 74.9949 215.056 75.8907 217.043 76.4779L225.283 78.9396C226.036 79.1654 226.796 79.474 227.563 79.8655C228.331 80.257 228.971 80.799 229.482 81.4915C230.009 82.1841 230.272 83.0875 230.272 84.2016C230.272 85.4814 229.911 86.588 229.189 87.5215C228.466 88.4552 227.473 89.1779 226.209 89.6895C224.959 90.1864 223.53 90.4348 221.919 90.4348C219.496 90.4348 217.412 89.8398 215.666 88.6507C213.92 87.4459 212.776 85.7901 212.234 83.6822L208.848 84.2468C209.224 86.174 210 87.8376 211.173 89.2378C212.347 90.638 213.837 91.7221 215.643 92.4899C217.464 93.243 219.512 93.6191 221.784 93.6191ZM246.965 92.9416H250.283V63.6051H261.639V60.4207H235.609V63.6051H246.965V92.9416ZM265.259 92.9416H285.576V89.7573H268.577V78.0362H282.867V74.8519H268.577V63.6051H285.576V60.4207H265.259V92.9416ZM291.009 92.9416H294.192V67.8283L305.751 92.9416H307.895L319.477 67.8283V92.919H322.637V60.4207H319.544L306.834 87.7699L294.057 60.4207H291.009V92.9416Z" fill="black"/>
<path d="M30.4766 94.2445C35.2522 94.2445 39.4633 93.2604 43.1101 91.2912C46.7858 89.2934 49.6656 86.4994 51.7495 82.9091C53.8333 79.3189 54.8753 75.135 54.8753 70.3577V30.4015H48.45V69.5325C48.45 72.7753 47.9001 75.5839 46.8003 77.958C45.7294 80.3033 44.2968 82.2432 42.5023 83.7777C40.7368 85.2833 38.7976 86.3981 36.6848 87.1219C34.572 87.8455 32.5026 88.2077 30.4766 88.2077C28.4796 88.2077 26.4246 87.8455 24.3118 87.1219C22.1991 86.3981 20.2454 85.2833 18.451 83.7777C16.6855 82.2432 15.2528 80.3033 14.153 77.958C13.0531 75.5839 12.5032 72.7753 12.5032 69.5325V30.4015L6.07797 30.4449V70.3577C6.07797 75.164 7.11991 79.3623 9.20378 82.9526C11.2877 86.5428 14.1675 89.3221 17.8432 91.2912C21.5188 93.2604 25.73 94.2445 30.4766 94.2445ZM67.044 92.9416H73.1654V44.6467L95.3935 92.9416H99.5179L121.789 44.6467V92.8982H127.867V30.4015H121.919L97.4774 82.996L72.9049 30.4015H67.044V92.9416Z" fill="black"/>
</svg>
