<svg width="205" height="222" viewBox="0 0 205 222" fill="none" xmlns="http://www.w3.org/2000/svg">
<g clip-path="url(#clip0)">
<path d="M80.833 25.0162C79.6582 25.2007 79.1962 25.1857 78.8046 25.3514C74.1054 27.3177 70.7494 25.1706 68.5918 21.547C66.7121 18.3829 65.1183 14.8195 64.5388 11.2599C64.1472 8.80771 65.365 5.92989 66.4497 3.47771C67.5345 1.02554 69.653 0.464285 72.6252 1.31558C79.8423 3.41368 87.1142 5.48164 94.531 6.77365C101.573 7.97024 108.805 7.61738 115.685 5.74155C121.281 4.25744 126.889 2.79216 132.422 1.10464C134.38 0.509487 135.555 1.0406 136.776 2.33638C139.302 5.04846 140.062 8.26906 139.608 11.7533C139.072 15.9264 137.23 19.8441 134.325 22.9859C131.975 25.5737 129.399 26.9372 125.816 25.4607C125.256 25.2309 124.574 25.2685 123.928 25.1781C124.218 30.7078 130.033 33.8945 134.572 34.2561C135.86 34.3641 137.156 34.3477 138.441 34.2071C144.581 33.5103 144.647 33.3521 144.189 27.4872C143.704 21.2569 147.353 16.8498 151.778 13.1056C154.022 11.2908 156.629 9.93829 159.438 9.13165C163.534 7.90745 166.741 10.1638 167.176 14.2582C168.824 29.7812 176.241 42.1626 188.909 51.7566C191.737 53.8999 194.458 56.1712 197.301 58.2919C201.973 61.7762 202.717 65.8255 199.134 70.4586C195.649 74.9524 190.985 78.1504 185.228 78.9565C182.573 79.3332 179.66 77.9809 176.523 77.3443C174.843 83.0246 175.697 89.0213 179.041 94.5661C182.526 100.337 188.193 102.812 195.629 102.898C195.026 108.115 194.685 113.133 193.832 118.067C190.276 138.694 181.962 157.328 168.206 173.62C162.12 180.77 155.094 187.127 147.302 192.533C145.884 193.578 144.799 194.985 144.17 196.593C142.411 201.241 141.002 206.01 139.423 210.828L131.274 209.807C122.373 208.677 113.993 210.534 106.091 214.327C103.166 215.732 100.855 215.63 97.9379 214.282C86.8479 209.152 79.8501 208.556 64.6171 210.892C63.0781 206.232 61.6605 201.497 59.8984 196.883C59.2836 195.271 58.1283 193.553 56.7069 192.563C38.3019 179.756 25.4223 162.907 17.1558 142.668C12.3478 130.917 9.52015 118.504 8.77954 105.897C8.72863 105.023 8.77954 104.137 8.77954 102.97C16.024 102.699 21.941 100.163 25.4106 93.8014C28.3475 88.4149 29.0093 82.7534 27.3686 76.7605C27.047 76.8021 26.734 76.891 26.4405 77.0241C22.3052 80.1995 18.0447 79.5479 13.7528 77.4008C8.87744 74.975 4.68345 71.8636 2.94086 66.5751C1.97362 63.6445 3.09749 61.0341 5.66244 59.0641C13.2985 53.203 21.2244 47.6432 27.0553 39.8987C32.8861 32.1542 35.6978 23.3249 36.9352 13.9418C37.4443 10.0771 40.5301 8.15982 44.6535 9.04502C49.9479 10.1751 53.4879 13.6292 56.5581 17.6144C59.5146 21.449 60.662 25.7281 59.4559 30.4403C59.0368 32.0789 59.6438 32.8021 61.2728 33.3106C68.4273 35.5406 75.0492 34.0941 78.55 29.3103C79.388 28.1916 79.8893 26.8468 80.833 25.0162ZM111.377 147.742L111.295 147.836L116.308 141.809L120.784 145.35C118.199 147.297 115.693 148.849 113.613 150.83C110.312 153.903 107.237 157.193 104.411 160.677C102.242 163.434 103.295 165.073 106.847 165.408C107.532 165.472 108.209 165.604 108.997 165.721C108.523 168.937 106.514 170.757 104.18 172.471C103.338 173.092 102.5 174.324 102.492 175.284C102.394 185.055 102.465 194.823 102.492 204.594V208.037C112.595 199.264 124.304 196.205 137.313 196.36C141.683 180.226 146.045 164.131 150.459 147.847C147.815 147.139 145.431 146.533 143.065 145.855C141.62 145.44 140.626 145.625 139.463 146.811C135.504 150.842 133.589 151.019 128.478 148.567C123.442 146.145 119.687 142.348 116.12 138.295C115.614 137.726 114.412 137.191 113.747 137.372C107.414 139.086 101.216 139.176 95.2476 136.411L87.7682 144.849L93.2505 146.966C93.3601 147.614 93.2505 148.563 93.6421 148.849C96.6104 151.041 99.6766 153.102 102.958 155.369L111.377 147.742ZM74.2346 144.16C75.5504 146.322 77.5319 146.691 80.1086 146.397C78.4991 143.96 76.3493 144.035 74.1524 144.235L76.5607 143.184C66.4693 133.936 58.7627 123.68 59.8592 109.66C60.9361 95.9108 69.1674 86.0343 79.8305 77.1296C81.0602 79.9961 81.9961 82.4822 83.1826 84.8515C84.326 87.1493 85.305 89.2285 82.0274 90.6787C81.5849 90.8746 81.3382 91.4923 81.0249 91.9293C70.6868 106.303 72.496 127.876 85.2385 140.818L89.8906 133.206L81.3186 124.101C84.5649 120.851 88.0305 120.621 92.0405 121.446C91.4805 124.52 89.6204 127.725 93.8692 130.298C96.5086 124.73 99.1088 119.235 102.069 112.971H89.2915C88.8999 105.757 89.3933 98.8978 87.9992 92.4114C86.5816 85.8384 83.3197 79.6345 80.8487 73.2235L70.9139 75.3027L70.1699 74.7264C70.6829 73.4834 70.8239 71.8109 71.7637 71.0726C75.617 68.0592 79.7091 65.3094 83.7191 62.4693C87.1103 60.0661 88.2185 60.2092 89.4207 64.025C92.6709 74.3723 95.6862 84.7913 98.7015 95.2139C99.6727 98.604 100.287 102.062 101.118 105.727H120.231C119.241 108.172 118.035 110.225 117.588 112.421C115.65 121.984 117.416 130.859 124.073 138.393C126.238 140.841 129.109 142.777 131.905 144.604C132.586 145.048 134.462 144.427 135.37 143.764C136.451 142.977 136.78 141.798 135.042 140.826C134.446 140.491 134.427 139.199 134.09 138.189H145.223L141.699 144.623C142.131 144.817 142.586 144.96 143.054 145.048C149.186 145.354 153.29 148.126 154.966 153.961C155.181 154.714 155.867 155.354 156.039 156.108C156.282 157.155 156.568 158.368 156.266 159.325C154.774 164.169 153.071 168.952 151.489 173.77C150.549 176.629 149.691 179.507 148.798 182.377C173.152 162.873 184.704 137.27 188.549 107.674C182.765 106.642 177.976 104.495 174.816 99.9488C167.54 89.4432 168.362 78.4781 173.343 67.4716C175.638 62.394 179.425 58.4313 184.465 55.6062C174.534 48.8524 168.018 39.9967 164.227 29.0692C163.17 29.6568 162.226 30.1993 161.263 30.7153C154.057 34.5461 146.676 37.8722 138.366 38.9382C126.963 40.4185 119.491 35.0358 118.363 23.9991C118.05 20.9556 118.426 17.7915 118.884 14.7404C119.366 11.6064 120.318 8.5252 121.128 5.1351C108.206 9.33506 95.5296 9.21075 82.5678 5.10496C83.0064 6.3932 83.3001 7.13902 83.5115 7.90368C85.2111 13.9305 86.5503 19.9838 85.3716 26.2893C83.8757 34.2674 78.3503 39.1793 69.8997 39.0211C65.3039 38.9275 60.7507 38.1511 56.4014 36.7196C50.6136 34.791 45.1548 31.9508 39.5628 29.5137C35.9719 40.0984 29.3814 48.8863 19.6267 55.6024C19.9077 55.8374 20.2019 56.0575 20.5078 56.2616C32.8196 63.4185 37.8868 82.3278 31.7975 95.7413C28.743 102.469 23.292 106.514 15.3975 107.667C19.2821 137.274 30.7872 162.828 54.7959 182.302C54.9174 181.855 54.8955 181.384 54.7332 180.95C52.4071 173.936 49.9949 166.949 47.8137 159.897C47.4702 158.504 47.5823 157.042 48.1348 155.712C49.1744 153.239 50.4185 150.849 51.855 148.567C52.4426 147.658 53.3413 146.974 54.3964 146.634C58.0774 145.613 61.8368 144.819 65.6156 143.922L62.71 138.717C64.7385 138.717 66.1169 138.796 67.4836 138.698C69.7744 138.536 71.5718 138.784 72.1279 141.496C72.3158 142.48 73.4906 143.278 74.2229 144.16H74.2346ZM98.7994 157.976C95.6941 156.164 92.7571 154.514 89.8906 152.755C87.122 151.056 84.8782 149.301 80.833 150.559C76.0477 152.047 71.7833 149.245 68.1023 146.178C67.4483 145.632 66.5359 144.777 65.9015 144.898C61.7976 145.704 57.7407 146.736 53.4958 147.734C57.9678 164.21 62.3302 180.298 66.6769 196.326C79.7679 196.198 91.4453 199.264 101.419 207.863V173.714C95.1145 172.35 93.3523 169.22 95.7802 163.69C96.5869 161.833 97.6716 160.07 98.7877 157.976H98.7994ZM166.31 16.831C164.27 21.8408 161.22 26.0483 156.47 28.4778C151.618 30.9526 146.496 33.2014 141.217 34.5725C128.537 37.8684 119.26 28.7189 122.154 16.3413C123.36 11.1619 126.215 6.99212 130.307 2.80722C127.926 3.41744 126.101 3.73762 124.433 4.38174C123.54 4.72075 122.499 5.49294 122.182 6.31033C119.871 12.1865 118.767 18.2774 119.319 24.5868C120.024 32.6929 125.404 37.7705 133.843 38.1735C141.06 38.5088 147.639 36.1734 154.018 33.2767C157.711 31.5967 161.282 29.6757 164.944 27.845C168.734 39.6388 175.568 48.9691 186.031 55.3953C183.419 57.5687 180.435 59.4559 178.242 61.9796C171.781 69.4115 169.753 78.237 171.021 87.6841C172.384 97.8017 177.549 104.91 188.749 106.661C188.988 106.699 189.191 106.925 189.497 107.113C189.324 108.97 189.27 110.835 188.949 112.654C188.298 116.327 187.641 120.007 186.748 123.627C181.081 146.495 170.195 166.504 151.383 181.91C147.937 184.732 146.86 188.076 145.634 192.239C163.154 180.403 175.485 165.118 183.901 146.838C190.13 133.299 193.655 118.753 194.294 103.96C181.912 101.953 175.407 95.2968 174.886 84.6406C174.581 78.3425 175.752 72.44 179.237 67.0648C182.875 61.4598 188.099 58.3183 195.962 58.1978C180.384 47.5792 168.836 35.2317 166.31 16.831ZM57.8816 191.764C57.0436 187.933 55.814 184.656 52.5481 181.733C46.4355 176.344 40.8526 170.424 35.8701 164.048C25.2265 150.194 19.1176 134.336 15.9183 117.442C15.2604 113.98 14.861 110.469 14.3989 107.384C17.7901 106.047 20.966 105.23 23.6445 103.636C29.3814 100.228 31.868 94.7393 32.8861 88.5354C34.8441 76.6588 30.0236 61.6594 18.354 56.1411C18.0838 56.013 17.9233 55.6703 17.7745 55.5007C28.5942 48.8373 35.3297 39.4241 39.0772 27.8262C42.8405 29.7096 46.3648 31.6382 50.0419 33.2767C56.7734 36.2902 63.6851 38.7423 71.329 38.0831C78.0135 37.5068 83.3157 33.5027 84.0833 27.1218C84.6902 22.1082 83.9815 16.9138 83.5546 11.8211C83.1395 6.85652 80.8134 3.32327 75.0022 3.08597C74.7515 3.08597 74.5009 3.08597 73.9762 3.08597C77.8608 6.92432 80.6568 11.1054 81.8786 16.2019C84.4553 26.9259 77.2382 36.2337 66.7473 35.2091C59.0055 34.4557 51.7571 31.7549 45.7226 27.0691C42.3706 24.47 40.0601 20.6316 37.3386 17.4223C35.2514 35.2317 23.5975 47.6131 8.07467 58.2053C17.0187 58.371 22.3601 62.4128 25.9627 69.0386C29.0955 74.7829 29.8043 80.9152 28.8175 87.1681C27.7797 93.6545 24.4433 98.928 18.1191 101.836C15.6011 102.996 12.7112 103.41 9.57839 104.281C12.4135 140.14 27.1845 169.996 57.8816 191.764ZM135.347 197.655C127.233 196.329 111.851 201.147 105.139 207.095C102.751 209.212 101.948 211.4 102.617 213.977C108.253 212.263 113.743 209.89 119.456 209.05C125.267 208.199 131.317 208.862 136.686 208.862L135.347 197.655ZM67.2682 197.395C69.5786 201.859 67.973 205.486 66.3127 209.619C78.9338 206.76 90.2861 208.967 101.478 214.263C101.321 212.195 101.415 209.796 100.213 208.613C91.3278 199.987 80.0185 197.588 67.2682 197.395ZM151.167 148.65C148.125 160.04 145.352 170.666 142.439 181.251C140.771 187.316 138.762 193.305 137.125 199.362C136.31 202.375 136.639 205.422 138.73 208.172C138.88 207.982 139.011 207.779 139.122 207.566C144.552 191.384 149.969 175.197 155.373 159.004C155.596 158.259 155.551 157.462 155.244 156.744C154.104 154.251 152.793 151.825 151.167 148.65ZM65.0792 208.3C65.3464 208.035 65.59 207.749 65.8075 207.445C67.695 203.867 67.0371 200.484 65.8075 196.733C63.458 189.658 61.8407 182.351 59.9101 175.145C57.6075 166.553 55.2932 157.965 52.8027 148.706C51.3107 151.599 50.0262 153.833 49.0159 156.176C48.574 157.19 48.486 158.315 48.7653 159.381C52.2583 170.116 55.861 180.818 59.4441 191.527C61.2768 197.045 63.1447 202.556 65.0792 208.3ZM21.7413 73.1293C16.913 75.2161 14.9746 74.8319 12.1629 71.4794C8.13732 66.6768 11.5481 63.6069 15.9301 60.1791C13.1302 59.8589 11.2701 59.4634 9.41001 59.4634C4.90666 59.4634 2.5336 62.3864 4.09998 66.4659C5.02581 68.763 6.47497 70.8314 8.34095 72.5191C11.971 75.815 16.1729 78.2672 21.7413 78.0638V73.1293ZM182.327 77.9282C189.375 78.4706 198.601 72.1612 200.14 65.9988C200.763 63.4976 199.854 60.7253 197.865 60.0134C194.885 58.9662 191.889 59.1922 188.808 60.4428C194.212 66.157 194.803 67.5695 192.332 70.7185C191.106 72.2742 189.352 73.7998 187.504 74.4251C186.094 74.8997 184.155 73.9354 182.127 73.5512C182.186 74.9486 182.256 76.4591 182.327 77.9282ZM41.0509 21.3586C44.0662 16.2584 46.1025 14.9965 49.2744 16.6351C51.295 17.6785 53.2921 19.317 54.4356 21.1778C55.1522 22.3455 54.2672 24.4248 54.0714 26.376L58.9938 25.5812C58.0265 20.1156 54.9603 16.2885 50.8956 13.0755C48.2797 11.0075 45.4524 9.40286 41.838 9.88501C38.8736 10.2617 37.5735 11.9944 38.4429 14.7216C39.1086 16.8121 40.0445 18.8274 41.0509 21.3586ZM150.306 26.4589C148.841 21.1552 149.95 18.5787 154.425 16.7481C155.702 16.2283 157.633 15.8328 158.651 16.3978C160.366 17.347 161.592 19.1136 163.06 20.5751C163.457 20.0141 163.807 19.4234 164.106 18.8085C164.693 17.4177 165.201 15.9967 165.625 14.5521C166.334 12.0622 165.233 10.3446 162.567 9.97165C161.29 9.77789 159.987 9.80724 158.721 10.0583C152.953 11.3202 145.799 19.317 145.227 25.0162C145.227 25.1593 145.391 25.3175 145.618 25.6904L150.306 26.4589ZM76.0986 6.90925C75.2215 5.94119 74.4422 4.96936 73.5415 4.11806C70.1581 0.920066 68.1336 1.33065 66.25 5.55321C63.7282 11.2034 67.2917 21.2381 72.9855 24.2892C73.5024 24.5679 74.6654 24.5001 75.0178 24.1347C75.9028 23.2232 76.4902 22.048 77.3126 20.8087C71.4817 20.1533 70.4283 19.2643 69.6686 14.7103C68.9755 10.676 69.8879 9.546 76.0791 6.90925H76.0986ZM129.555 25.0388C135.331 22.1383 139.212 15.3619 138.507 9.01112C138.268 6.86405 136.976 4.74335 135.786 2.82982C135.449 2.28364 133.436 2.03127 132.778 2.45315C130.981 3.65852 129.497 5.29707 127.719 6.92055C133.499 8.97345 135.018 10.4086 134.482 13.7987C134.176 15.7461 133.546 17.961 132.249 19.3585C131.208 20.4885 128.944 20.5488 126.924 21.1778C127.719 22.3305 128.608 23.6149 129.555 25.0388ZM96.8884 132.644C101.87 135.507 106.761 135.323 112.055 133.628L105.398 122.512L96.8884 132.644ZM22.6577 77.3443C26.1037 76.5081 27.3568 75.4383 26.8125 73.7508C25.532 69.7015 23.4761 66.0929 20.0966 63.2829C16.5723 60.3674 16.5723 60.3712 13.3769 63.9534C18.961 66.8162 23.9069 70.1159 22.6577 77.3443ZM181.301 77.3443C180.126 70.1498 185.099 66.7973 190.64 63.9233C187.429 60.4089 187.175 60.1791 184.112 63.2754C181.685 65.791 179.644 68.6271 178.05 71.6979C176.139 75.299 176.821 76.1653 181.301 77.3481V77.3443ZM43.4592 19.656C41.838 21.4716 42.2844 22.8164 43.6589 24.2214C47.5866 28.2104 52.693 30.1729 58.1792 32.2559C58.4142 30.2746 58.6257 28.4891 58.8645 26.4626C51.4634 28.6549 47.1558 24.9446 43.4435 19.6598L43.4592 19.656ZM145.873 32.2559C151.293 30.2068 156.329 28.2857 160.213 24.3947C161.588 23.0198 162.453 21.611 160.703 19.9197C153.466 27.3478 152.561 27.7471 145.274 26.6999C145.242 27.2256 145.242 27.7525 145.274 28.2782C145.446 29.4685 145.642 30.6889 145.873 32.2559ZM52.4855 25.9918C54.4748 21.9199 54.2359 20.8689 51.0405 18.6202C48.0604 16.5183 46.2826 16.4693 43.9448 18.4846C46.0633 21.66 48.1975 24.8052 52.4855 25.9918ZM21.3654 71.9051C19.3134 68.0705 15.9418 66.2172 12.1747 64.6842C10.7884 68.2777 11.6617 70.3343 15.0333 72.907C17.4964 74.7829 19.2547 73.4495 21.3654 71.9051ZM160.577 18.5524C156.732 16.119 150.494 18.5147 150.153 22.048C150.044 23.2157 150.803 24.5792 151.539 25.6038C151.716 25.8449 153.658 25.3364 154.355 24.7224C156.477 22.839 158.388 20.7559 160.577 18.5524ZM191.713 64.7218C188.028 66.3227 184.539 68.0743 182.742 71.9051C184.884 73.6943 186.83 74.7565 189.36 72.617C192.543 69.9238 193.319 67.8746 191.713 64.7218ZM73.3379 9.25219C70.538 10.3107 69.743 12.7327 70.9413 16.3187C72.0535 19.641 73.1578 20.1608 77.2068 19.2718C77.6259 16.0964 76.6704 13.5802 73.3379 9.25219ZM130.812 8.99981C128.463 12.2166 126.262 15.2602 126.708 19.3208C130.91 20.0252 131.713 19.6975 132.849 16.944C134.243 13.5576 133.651 10.8342 130.812 8.99981ZM74.45 8.95461C78.1232 13.8251 79.9598 18.9215 76.1535 24.6433C81.5222 23.7091 82.0274 23.3776 81.1659 19.0195C80.5432 15.8554 79.1609 12.8193 78.0331 9.7607C77.3635 8.01292 76.1339 7.83211 74.45 8.95461ZM129.528 8.95461L129.172 8.23892C128.216 8.5704 126.842 8.6156 126.379 9.28232C123.309 13.5915 122.091 18.364 123.09 23.7129L128.001 24.7224C123.932 18.7972 126.058 13.7987 129.528 8.96215V8.95461Z" fill="#30221B"/>
<path d="M111.377 147.742C107.892 148.845 103.851 149.015 102.187 152.284C101.118 151.413 100.003 150.596 98.8464 149.836C97.1547 148.823 95.3573 147.979 93.603 147.064L93.8536 147.177C98.7681 149.414 103.69 150.759 108.844 147.693C109.416 147.354 110.465 147.772 111.295 147.836L111.377 147.742Z" fill="#30221B"/>
<path d="M94.2765 69.3324C98.1924 67.7617 100.683 65.0307 102.108 61.377C102.415 60.7317 102.557 60.0253 102.523 59.3165C102.406 58.5029 101.916 57.742 101.588 56.9548C100.894 57.2486 100.193 57.5235 99.516 57.84C99.1307 58.039 98.7569 58.2578 98.396 58.4954C96.2697 55.3313 97.0098 50.9844 99.8802 49.2178C103.291 47.1159 106.999 47.8467 109.306 51.071C111.612 54.2954 111.62 58.066 109.2 61.2414C107.904 62.9477 106.494 64.575 105.01 66.3943C109.012 67.8106 112.815 69.0085 116.492 70.4926C124.527 73.7395 131.65 78.2861 136.812 85.183C145.086 96.2197 145.873 108.292 141.679 120.941C139.901 126.466 137.017 131.604 133.189 136.065C132.14 137.278 130.981 138.404 129.857 139.583C129.128 139.123 128.749 138.901 128.38 138.653C123.376 135.232 123.533 135.285 125.545 129.819C130.636 116.003 131.419 102.085 126.062 88.1324C121.849 77.1711 112.078 71.4606 99.328 72.9749C95.9799 73.3516 94.8051 72.3082 94.2765 69.3324Z" fill="#30221B"/>
<path d="M128.259 74.9186C125.299 73.8639 124.531 72.4852 125.996 69.8033C127.629 66.7898 129.52 64.2473 132.653 62.6049C136.851 60.4127 141.327 61.9081 142.4 66.3717C142.903 68.6703 142.695 71.0603 141.8 73.2461C140.485 76.316 136.812 76.1804 135.112 73.3214C133.412 70.4625 131.811 70.3419 129.798 72.9448C129.324 73.5964 128.815 74.2179 128.259 74.9186Z" fill="#30221B"/>
<path d="M108.472 14.7291C107.426 18.285 106.467 21.5545 105.382 25.2497L115.333 22.7637V33.2542L105.402 30.9941C106.471 34.6215 107.43 37.876 108.456 41.364H96.2266C97.1939 37.9739 98.1024 34.7872 99.1558 31.0845L89.2484 33.2316V22.7712L99.1793 25.2384C98.1572 21.6035 97.2213 18.285 96.2227 14.7291H108.472ZM101.247 28.9902C100.092 32.9189 99.0579 36.4258 98.0006 40.008H106.616C105.551 36.3316 104.552 32.8511 103.432 28.9826L113.962 31.6909V24.568L103.491 26.9825C104.591 23.1064 105.57 19.6561 106.584 16.0889H97.9927C99.0774 19.7691 100.088 23.2082 101.216 27.0126L90.6229 24.5378V31.6947L101.247 28.9902Z" fill="#30221B"/>
<path d="M107.137 104.578C108.613 96.7018 111.836 89.7408 116.421 83.3222C117.702 81.5254 119.092 82.5688 120.165 83.3937C121.375 84.3241 122.448 85.4918 120.999 87.1944C118.963 89.5863 116.848 91.9594 115.196 94.5924C113.69 97.0174 112.506 99.614 111.671 102.322C110.935 104.676 109.721 105.271 107.137 104.578Z" fill="#30221B"/>
</g>
<defs>
<clipPath id="clip0">
<rect width="205" height="221.773" fill="white" transform="translate(0 0.227051)"/>
</clipPath>
</defs>
</svg>
